<?xml version="1.0" encoding="UTF-8" standalone="no"?>
<!-- Created with Inkscape (http://www.inkscape.org/) -->

<svg
   id="svg2116"
   height="981.71533"
   width="662.5921"
   version="1.0"
   sodipodi:docname="map_locations.svg"
   inkscape:version="1.1.2 (0a00cf5339, 2022-02-04)"
   xmlns:inkscape="http://www.inkscape.org/namespaces/inkscape"
   xmlns:sodipodi="http://sodipodi.sourceforge.net/DTD/sodipodi-0.dtd"
   xmlns="http://www.w3.org/2000/svg"
   xmlns:svg="http://www.w3.org/2000/svg">
  <defs
     id="defs224" />
  <sodipodi:namedview
     id="namedview222"
     pagecolor="#ffffff"
     bordercolor="#666666"
     borderopacity="1.0"
     inkscape:pageshadow="2"
     inkscape:pageopacity="0.0"
     inkscape:pagecheckerboard="0"
     showgrid="false"
     inkscape:zoom="0.5"
     inkscape:cx="433"
     inkscape:cy="605"
     inkscape:window-width="1920"
     inkscape:window-height="942"
     inkscape:window-x="0"
     inkscape:window-y="28"
     inkscape:window-maximized="1"
     inkscape:current-layer="svg2116"
     fit-margin-top="0"
     fit-margin-left="0"
     fit-margin-right="0"
     fit-margin-bottom="0"
     showguides="false" />
  <g
     id="g36416"
     transform="matrix(1.0147968,0,0,1.0147822,-0.01481923,-0.01431727)"
     style="stroke-width:0.985425">
    <path
       id="path7299"
       stroke-linejoin="round"
       style="color:#000000;fill:none;stroke:#000000"
       d="m 607.08001,928.01351 -0.23,7.93 5.1,6.6 v 2.5 l -6.93,-4 -11.33,13.2 -9.67,7.4 -19.5,4.8 m 42.56,-38.43 v -7.86 l 0.86966,-17.11753 c 0,0 -1.99902,-8.05192 -3.28194,-12.38798 0,0 6.00867,1.79476 8.65911,-0.19214 2.65043,-1.98689 2.3757,-4.12394 5.66478,-5.94452 3.28908,-1.82057 14.24839,-2.30783 14.24839,-2.30783 l 12.81,-2.04 5.91,-4.08"
       fill-rule="evenodd"
       stroke="#727271"
       stroke-linecap="round"
       stroke-width="1.97085"
       fill="#eeeeee"
       sodipodi:nodetypes="cccccccccccczzccc" />
    <g
       id="layer11"
       stroke="#727271"
       fill="#ff1d1d"
       style="fill:none;stroke:#000000;stroke-width:0.985425"
       transform="translate(-29.639992,-66.456489)">
      <path
         id="path2639"
         d="m 390.44,280.34 c -0.58,0.06 -0.95,0.69 -1,2.57 5.98,4.81 -1.54,3.1 -4.85,3.53 -2.96,-0.17 -3.35,-2.77 -7.9,-1.66 -4.98,5.19 -10.68,6.15 -17.19,5.16 -1.31,-7.18 -2.39,3.93 -6.38,-0.19 -1.79,3.45 -3.99,0.52 -5.56,3.44 -0.1,0.16 -7.13,-1.93 -9.03,3.28 -0.86,4.23 -4.79,6.43 -1.78,0.59 7.48,-5.07 -8.99,-12.69 -6.63,-5.03 -3.85,2.41 -4.8,8.06 -8.34,9.03 2.24,-4.53 8.09,-10.2 0.88,-12 -2.32,-5.18 -0.43,-0.17 -3.19,0.94 -0.88,-4.46 -5.96,-4.33 -9.44,-5.94 -0.87,2.06 0.02,4.65 -1.09,6.69 -4.47,3.06 -5.44,8.66 0.37,9.56 4.15,3.99 -4.3,-0.87 -3.72,3.44 -1,0.52 6.79,4.66 0.47,2.41 -3.34,-3.76 -4.89,7.26 -2.72,6.9 -2.48,3.84 9.83,6.79 8.6,6.82 0.71,3.28 -0.77,0.19 -3.56,0.12 -3.59,-3.22 -4.9,1.08 -8.26,0.19 -3.9,3.67 -7.59,-2.11 -9.56,0.5 2.9,3.08 3.57,8 7.82,8.97 -1.99,1.87 -0.3,2.05 -1.76,3.34 3.66,4.66 -2.87,2.96 -4.78,4.06 -1.74,-5.31 -7.23,-2.06 -2.9,1.53 2.41,2.67 6.85,6.99 11.59,8.97 -2.41,3.44 1.54,5.09 4.72,7.66 2.43,6.25 0,0.79 -3,-0.78 -2.49,-4.22 -7.46,-1.18 -9,-5.06 -5.99,-0.4 0.21,3.19 2.69,5.34 6.82,3.31 -1.51,2.69 -3.38,-1.13 -5.67,-5.48 -3.4,7.57 -9.12,1.85 -0.05,-4.37 -5.16,-7.1 -5.47,-1.47 1.3,2.42 5.1,7.81 2.31,8.87 -0.64,1.36 -1.66,2.88 -3.12,-1.43 0.03,-6.02 -2.79,-5.94 -7.54,-5.38 0.82,4.15 -1.8,13.03 5.22,12.72 4.43,5.13 -3.06,0.31 -3.75,3.78 -4.18,4.6 2.95,4.9 3,9.47 2.42,1.65 2.04,3.55 7.41,2.72 7.35,2.86 -5.87,0.31 -3.41,3.28 -2.31,0.44 -2.96,-4.37 -5.18,-2.97 -4.66,-7.67 -6.91,4.05 -5.69,9.22 3.72,0.15 2.54,3.25 2.53,5.37 -1.21,6.7 7.3,1.95 9.75,-1.18 -3.04,6.53 5.45,3.37 7.81,-1.16 1.79,2.4 -6.43,7.44 -10.47,7.1 -7.23,4.71 1.77,6.5 6.1,5.46 1.71,2.06 7.67,4.61 7.09,5.32 -4.73,-0.28 -6.56,-6.66 -11.53,-2.69 0.38,3.14 -0.64,5 -2.62,8.34 2.93,1.46 7.04,2.36 8.43,5.07 6.68,-1.92 1.33,1.83 -2.19,0.34 -3.41,-6.52 -14.89,1.42 -9.37,5.69 5.17,-2.93 1.98,5.58 7.53,3.97 7.22,-2.49 0.2,1.73 -3,1.18 -2.66,-2.58 -8.46,-5.82 -9.16,0.44 -1.84,2.74 -0.27,6.29 -1.71,6.81 -6.32,2.18 4.54,1.17 7.4,1 -5.63,1.69 0.64,4.86 2.22,0.69 2.14,3.91 -8.53,2.12 -8.59,5.88 5.39,1.4 3.14,4.3 -0.38,3.53 -0.71,0.11 -1.45,4.11 -4.44,0.15 -4.4,1.36 -10.89,0.29 -13.81,4.03 h 0.03 c -0.74,6.88 9.82,3.04 13.41,4.41 4.5,2.62 7.81,-2.63 11.94,-2.28 2.41,3.19 12.39,0.23 4.34,2.72 -4.7,-2.43 -8.41,-1.24 -12.06,2.44 -8.5,-3.07 -6.74,5.76 -1.13,9.03 5.4,1.14 6.15,1.32 9.85,4.15 6.5,0.46 9.84,-11.23 14.87,-12.65 1.93,-4.65 6.18,-4.65 7.69,-8.5 0.13,-1.53 7.3,-9.19 5.75,-5.63 -3.07,3.87 -8.8,10.3 -0.22,10.34 6.28,-3.56 0.84,2.4 -2.72,0 -5.98,0.28 -5.15,3.98 -8.22,6.47 -2.54,2.85 -4.06,9.72 1.35,6.53 6.47,-3.17 1.56,0.95 -1.75,2.22 -3.8,-3.65 -6.63,6.74 -3.5,1.75 0.92,1.66 2.42,3.86 5.34,3.29 8.61,1.26 -3.59,0.48 -5.62,0.46 -2.91,5.83 -7.8,9.97 -7.63,17.22 0.51,3.23 3.25,3.86 0.22,7.47 -3.16,7.05 0.89,2.79 3.22,-0.91 1.74,1.62 -4.08,7.07 -0.44,8.97 -4.62,-1.22 -5.36,5.88 -8.37,9.32 -0.63,7.04 1.46,-0.01 3.46,-2.5 4.55,-6.83 2.07,2.13 -2.09,5.68 -3.02,5.52 1.71,5.05 4.19,1.07 0.84,1.38 -7.17,8.49 -2.91,12.53 2.86,4.84 6.57,-1.64 9.31,-5 -0.35,4.55 -7.69,8.64 -9.59,14 -1.89,5.28 -3.8,12.53 -3.03,19.19 -1.46,4.74 -6.83,7.98 -5.09,14.21 5.01,2.93 17.13,-1.21 14.25,-8.43 -4.03,-2.32 -0.39,-3.48 0.56,-7.16 0.48,-3.72 3.34,-7.99 2.28,-10.34 -2.07,-5.89 3.38,-12.72 7.88,-15.97 -3.31,-7.19 -6.93,-12.7 -6.57,-20.81 1.3,2.23 5.44,-0.08 6.6,-3.54 1.68,-6.82 10.61,-7.35 11.78,-14.12 0.98,-0.35 8.19,-5.61 6.75,-2.72 -6.28,1.7 -5.62,8.34 -11.06,10.19 -4.18,3.69 -9.25,9.83 -9.19,15.4 -1.32,5.44 1.63,10.48 7.15,11.44 -2.09,-4.26 -0.57,-7.26 0.44,-11.53 0.28,1.75 8.32,8.83 5.06,1 1.84,-4.92 0.86,7.79 4.19,8.19 3.55,-1.67 5,-10.11 4.25,-11.72 2.43,-0.3 2.08,-8.31 0.81,-11.06 0.55,-8.46 0.36,6.14 3.5,-0.29 0.78,0.75 -4.46,8.41 -0.31,11.66 7.23,2.08 0.6,-3.24 0.34,-6.5 3.15,2.67 8.36,10.77 15.35,11 4.08,1.94 -6.74,-0.33 -9.13,-0.37 -7.61,-6.13 -11.09,5.04 -9.12,11.53 5.51,4.52 -4.84,9.38 2.4,11.84 1.17,4.6 10.17,3.95 9,10.47 0.33,1.05 4.55,5.51 1.5,9.19 -6.21,0.78 -6.1,7.11 -9.84,10.53 1.18,8.18 -6.29,12.25 -9.03,18.37 -3.71,5.97 -1.3,12.14 1.66,17.28 -6.4,3.05 -1.65,-10.57 -7.97,-8.21 -5.9,6.49 2.3,16.21 6.68,21 4.47,2.8 0.16,9.73 6.72,11.18 1.25,-1.11 -0.3,-5.76 -2.09,-8.47 -3.26,-4.89 -2.03,-9.33 4.09,-11.18 2.76,1.58 6.82,4.93 10.6,6.53 3.77,3.35 6.24,8.88 12.31,8.97 3.1,-1.86 -0.93,-7.86 1.59,-9.28 -1.56,-3.11 -6.48,-6.18 -2.62,-9.91 1.06,-0.05 2.8,6.44 7,5.53 3.95,-5.3 1.23,2.17 3.97,3.69 4.01,4.48 4.33,0.54 5.97,-3.47 -1.62,4.71 2.65,8.26 6.59,4.25 5.61,-2.32 2.77,-4.08 4.72,-7.37 -0.23,0.88 2.11,2.84 5.72,-0.38 4.85,0.89 8.38,-0.7 6.9,-6.16 -1.47,-5.36 1.76,-1.13 3,-3.18 2.92,-0.2 6.81,0.76 10.88,1.31 4.07,0.55 7.64,-0.35 11.5,-0.97 1.45,-0.23 1.76,-0.37 1.62,-0.5 3.31,0.21 -5.55,3.92 -0.43,3.03 -0.77,5.78 -9.51,-3.14 -12.28,3.03 2.87,1.26 1.05,5.26 -2.1,2.69 -2.2,-0.62 -6.25,7.15 -5.56,10.75 -6.5,5.28 -5.76,13.98 -9.25,20.41 1.62,7.01 12.16,12.77 11,21.06 1.2,3.4 6.86,10.39 8.19,4.78 1.5,-9.32 2.79,3.87 -0.1,4.53 -0.46,3.48 1.06,5.41 3.72,7.53 0.61,0.8 3.63,-3.8 5.06,-6.75 1.29,-6.17 2.43,-0.48 5.32,0.13 1.02,-1.71 8.47,-6.15 5.43,-2.75 4.12,5.29 0.77,8.27 -3.03,12.12 -0.07,4.5 3.82,2.27 2.41,5.94 1.67,2.54 -5.05,2.62 -8.41,3.31 -3.15,7.34 -2.75,21.39 8.85,15.97 -3.24,2.83 -10.74,7.84 -12.69,14.72 3.37,5.6 3.84,13.63 9.94,17.31 2.29,4.74 10.19,-1.7 7.65,2.97 -5.19,7.97 -12.75,-3.26 -13.47,-9.12 -10.56,-0.97 -5.88,11.11 -4.4,13.84 1.1,1.03 1.07,1.03 1.06,1 -1.6,-0.92 -2.76,-1.26 -5.12,-3.53 -7.5,-10.78 -16.41,2.64 -25.47,0.15 -2.49,-1.71 -11.29,-6.47 -6.32,-0.53 -3.71,1.91 -11.09,5.86 -16.53,6.1 -2.48,2.37 -6.14,9.59 -8.15,8.87 0,4.83 -3.31,9.53 -7.79,12.72 -5.99,3.15 -11.21,7.19 -13.56,13.75 1.73,1.52 2.9,-1.54 5.44,-0.87 3.27,-4.15 5.77,3.31 7.91,0.96 -0.9,-6.88 8.37,-9.88 14.81,-9.43 6.75,1.91 -0.1,8.69 4.56,11.81 0.91,4.34 4.96,2.47 5.22,2.91 -4.98,2.52 -9.23,11.52 -2.22,14.9 5.15,-2.43 5.18,0.86 0.28,1.66 -2.55,1.56 -1.88,10.49 -4.65,14.62 -2.96,7.62 -10.73,9.81 -16.07,14.07 -1.96,4.53 -10.3,0.41 -11.93,4.09 -2.23,-0.08 -3.37,4.92 -7.13,5.56 0.81,4.92 -4.42,-0.02 -5.47,3.35 -1.34,-0.31 -8.04,-4.07 -6.72,1.31 -1.85,3.64 -8.26,4.15 -10.68,6.81 -2.65,5.88 5.53,0.09 8.65,4.16 2.3,5.04 -0.19,6.8 -3.81,8.68 -4.24,0.57 0.86,2.06 1.5,4.63 -0.04,-5.5 7.02,0.14 10.94,-2.09 8.12,-1.31 -2.98,2.73 -4.63,1.9 -1.41,0.63 -6.34,0.04 -0.84,2.19 -0.02,3.15 3.94,5.38 7.09,4.06 2.17,-4.55 7.59,-1.54 10.5,-4.15 -0.31,-7.39 8.17,-5.53 13.53,-6.5 -2.29,-4.89 1.2,0.19 2.69,-2.94 -0.18,1.69 5.53,5.87 0.72,4.03 -1.52,2.97 5.01,5.55 8.28,3.72 1.94,4.04 8.64,-1.88 5.59,2.62 -4.55,3.81 -7.6,-1.17 -10.37,3.13 -0.51,3.71 2.2,6.52 5.78,5.22 2.52,-2.46 6.92,-1.18 9.94,-1.38 -4.11,-4.13 5.65,-5.86 7.06,-3.94 4.55,2.37 3,11.63 8.41,10.69 5.48,8 16.67,8.97 24.62,5.44 -0.81,-5.57 5.63,-7.66 9.03,-11.66 2.43,2.33 7.87,0.18 11.75,-1.87 0.18,-0.39 0.32,-0.77 0.44,-1.1 v 0.22 c 5.47,-2.74 8.79,-10.7 15.28,-12.87 1.95,-3.53 4.07,0.03 0.35,0.91 -5.98,4.65 -9.82,12.48 -14.03,18.9 -5.58,0.22 -9.19,8.49 -12.57,9.6 -0.27,4.36 -3.21,3.6 -2.37,7.59 2.22,4.95 -1.48,8.03 -6.56,6.5 -5.92,3.01 -12.83,2.51 -18.04,-1.22 -4.85,0.66 -10.27,-1.39 -15.46,-0.37 -5.68,1.05 -17.61,-0.52 -19.22,4.43 -4.25,2.61 2.87,7.19 -2.28,10.6 -3.4,6.74 -9.09,0.54 -13.69,1.25 -0.05,2.62 0.64,5.35 -0.85,7.59 -0.01,0.02 -0.02,0.02 -0.03,0.03 1.31,7.15 -2.22,12.53 -6.72,17 -5.51,0.87 -2.02,9.58 -9.09,8.69 -3.79,-0.57 -2.15,1.65 -3.94,2.44 -4.44,-1.07 -4.25,5.44 -5.5,10.18 -6.1,-0.25 -3.07,5.53 -7.59,7.85 -2.45,4.71 -8.66,5.4 -10.91,9.66 -4.01,-3.16 -7.97,1.1 -12.62,2.8 -1.66,2.4 -2.63,7.4 -0.22,9.2 7.69,3.1 5.51,-9.1 11.62,-5.9 7.52,0.5 9.07,7.1 12.13,12 1.12,-0.9 3.11,-4.4 5.81,-4.5 5,-3.6 -4.04,-5.7 0.19,-7.4 2.78,-2.7 0.01,-4.3 2.72,-7.5 0.47,0 1.22,4.8 1.06,5.4 1.95,-3.2 3.92,-4.1 6.53,-6 4.92,0.3 4.9,-3.35 5.78,-6.73 0.83,-4.42 4.41,-0.14 5.66,-1.22 6.9,1.81 11.76,-4.34 18.69,-1.81 2.27,5 6.98,-0.06 2.25,-1.19 5.94,-2.25 5.67,7.68 11.87,4.72 4.78,-2.01 6.29,7.33 10.28,6.23 4.11,2 7.23,-0.25 7.03,-5.14 3.39,-2.09 2.72,-5.46 5.5,-3.94 3.89,-4.37 -0.7,-3.76 -1,-8.09 5.54,-0.46 -0.56,-5.62 3.97,-8.78 3.52,-2.05 -1.97,-12.73 1.94,-6.53 2.47,7.59 7.17,-3.24 11.63,-3.22 7.71,1.1 14.53,-6.3 21.9,-1.16 5.61,3.86 16.21,7.6 14.78,15.07 0.85,-0.65 0.78,-2.01 1.75,-2.63 -2.52,-3.01 -1.58,-9.34 4.6,-6.81 7.01,-0.31 11.96,3.79 18.18,2.94 2.66,-2.68 1.87,-4.25 1.35,-6.53 -3.86,0.23 -4.02,-2.2 -6.19,-1.13 -2.48,-0.87 2.43,-2.5 4.91,-2.16 1.22,5.82 5.63,-3.23 10.25,0.22 0.48,-0.41 0.95,-2.93 4.9,-2.09 5.02,3.51 6.48,-0.54 11.03,-2.56 7.59,0.39 6.51,-6.25 1.47,-9.04 -7.21,-3.94 2.24,-0.92 4.16,2.35 3.2,0.99 8.03,8.76 10.06,4.06 -3.12,-3.11 -1.17,-3.92 2.41,-2.75 -4.27,3.12 1.69,7.32 1.84,0.88 4.51,-4.26 0.14,5.09 1.53,3.9 4.72,2.29 0.99,-8.74 3.75,-3.59 -0.4,0.25 5.52,-0.27 1.53,2.56 -2.91,1.49 8.5,8.14 7,2.72 1.93,-1.58 12.52,-2.57 17.82,-3.72 11.08,-5.01 21.87,2.91 32.31,4.97 3.98,-7.52 12.84,-7.59 20.28,-10.19 3.63,-6.18 9.46,-4.82 15.34,-3.4 -2.03,-7.3 5.03,-13.32 11.78,-13.79 5.78,-1.24 12.7,-6.08 9.54,-13.43 -3.9,-5.41 3.69,-4.99 2.59,-10.44 -1.67,-0.74 -3.73,0.12 -5.47,0.31 -9.28,-0.84 -17.84,5.68 -26.72,2.16 3.23,0.92 10.97,-1.58 3.66,-4.94 -3.55,-1.94 -7.37,-1.28 -7.53,0.53 -1.16,0.09 -1.32,4.2 -4.97,2.22 -6.02,1.19 -0.65,-5.27 3.19,-3.75 4.88,-2.86 -6.28,-4.77 -9.03,-3.87 -1.21,0.59 -7.36,4.96 -4.82,2.09 1.75,-5.36 8.36,-3.21 11.47,-5.75 4.63,0.95 10.17,0.5 13.44,-4.25 4.7,-3.62 -1.54,-2.13 -2.41,-1.72 -5.44,-3.6 1.86,0.41 3.63,-3.34 3.46,-5.19 -0.87,-9.97 -5.63,-5.6 -1.85,0.93 -4.75,1.16 -4.84,-1.37 6.48,1.45 7.33,-5.56 13.19,-5.69 3.02,5.45 10.7,1.94 13.71,-2.66 3.28,-5.41 -1.04,-0.18 -3.34,-2.78 1.99,-2.25 7.33,-6.58 0.31,-5.4 -5.9,0.78 -4.02,-2.51 0.41,-0.88 6.2,2.05 -1.04,-5.94 3.25,-2.06 2.15,7.99 7.36,-1.57 9.19,-5.34 6.4,-0.71 8.26,-8.13 7.94,-14.1 1.26,-7.75 6.64,-14.62 6.87,-22.22 -0.98,-10.24 -1.67,-22.48 -12.69,-27.62 -5.95,-7.5 -15.5,-7.59 -23.68,-10.63 -5.16,-1.38 -0.48,0.73 -1.88,1.19 -6.15,-0.88 -10.81,-0.97 -17.59,-0.72 -6.19,-2.16 -9.3,4.3 -10.13,10.03 -2.96,2.69 -2.18,8.28 -5.5,3.03 -7.19,3.13 -7.87,-11 -15.62,-6.37 0.86,-3.36 6.18,-7.93 9.37,-12.09 6,-3.58 9.67,-8.99 7,-16.1 -3.21,-9.76 -5.74,-19.97 -15.31,-23.68 -3.11,-5.56 -8.85,-5.84 -12.69,-11.35 -1.29,-6.76 -6.78,-3.77 -11.47,-3.78 -3.52,3.7 -6.26,-0.89 -9,-0.56 -5.84,2.95 -3.65,-1.75 1.16,-2.03 5.76,5.28 14.7,-4.49 19.12,1.72 3.45,5.02 8.44,7.49 14.04,5.34 5.65,-0.39 2.04,8.33 4.34,4.5 0.2,-7.75 -7.77,-13.69 -11.13,-20.47 -5.07,-6.53 -11.26,-20.84 0.25,-23.87 -1.98,-3.41 -11.33,-2.57 -9.4,-8 -6.23,-2.3 -7.2,-7.4 -9.03,-13.07 -3.28,-4.22 -3.56,-10.1 -9.63,-11.25 -5.64,-6.39 -14.37,-6 -20.94,-10.5 -4.97,-4.13 -2.61,3.74 -6.5,1.06 2.1,-2.89 -0.75,-5.24 1.16,-7.56 -8,-3.75 -8.31,-13.97 -9.44,-21.5 -2.75,-6 -5.79,-10.89 -7.47,-17.15 1.16,-5.03 -3.98,-9.01 -2.09,-14.22 -2.32,-3.89 -1.67,-7.93 -1.5,-12.53 -1.61,-5.07 -1.15,-9.54 -5.19,-13.13 -4.41,-0.98 -2.86,0.08 -4.34,-3.37 -1.2,0.96 -4.04,0.16 -4.94,-3.72 -3.25,-2.94 -6.83,-6.75 -9.03,-10.66 -0.17,-0.3 -0.28,-0.47 -0.41,-0.69 -1.51,-4.73 -2.75,-7.28 -5.87,-9.09 -7.35,1.85 -12.83,-9.34 -19.25,-6.78 0.4,-6.77 -11.38,-7.69 -14.19,-3.28 0.16,4.39 -5.18,7.16 -9.53,7.62 -3.95,-2.72 -8.77,-2.72 -13.22,-3.28 -4.73,-0.31 -10.46,-2.5 -15.91,-2.5 -7.55,-1.36 2.28,-6.45 5.69,-2.12 6.12,4.87 10.63,-2.75 17.13,-1.75 1.16,-5.56 6.84,-9.72 11.62,-13.29 6.1,3.19 12.73,0.14 17.03,-5.06 1.9,-6.29 -9.52,-4.52 -11.09,-8.94 -0.66,-0.32 3.27,-8.12 -2.53,-7.78 -5.69,1.55 -11.31,5.93 -17.25,8.41 -4.84,1.49 -6.74,-0.91 -0.84,-0.94 4.58,-5.8 11.35,-8.93 17.9,-8.37 3.39,-2.53 7.68,1.72 8.41,-3.35 3.97,-3.29 12.7,-7.11 10.25,-12.75 3.58,-3.29 3.21,-5.32 4.34,-10.12 4,-2.75 10.05,-8.26 11.66,-14.72 -2.17,-7.46 6.97,-12.86 5.81,-19.62 -2.5,-10.74 9.21,-20.88 12.69,-27.32 3.83,-2.24 -0.45,-5.04 2.15,-5.87 -3.31,-2.56 -1.9,-8.67 -3.75,-10.72 -3.59,-4.64 -6.99,-7.05 -12.81,-7.03 -3.23,3.08 -7.46,0.95 -10.78,0.97 -5.6,3.62 -14.19,-0.55 -20.69,-0.22 -4.7,-1.96 -8.86,-2.16 -12.84,1.09 -9.16,1.52 -19.49,-10.22 -26.47,-0.16 -5.32,1 -10.68,1.53 -14.5,6.44 -2.83,2.92 -16.12,-1.16 -11.28,3.1 -2.91,2.65 -5.9,8.64 -10.5,6.46 4.68,-2.97 -3.3,-5.92 2.28,-4.56 1.48,-2.32 4.83,-2.3 5.28,-5.44 2.66,-3.27 6.92,-9.05 0.09,-5.21 -4.96,-1.61 -9.54,0.15 -13.34,5.56 -4.95,6.1 -4.01,-0.42 0.63,-2.75 1.65,-5.9 7.86,-3.1 11.34,-7.19 3.18,-3.54 5.95,-1.89 5.06,2.44 4.51,-3.13 8,-9.15 11.44,-14.06 1.28,-6.35 -2.07,1.3 -4.44,1.43 -5.23,1.93 -0.74,-0.02 -3.87,-1.5 -3.68,2.29 -10.07,1.82 -12.22,-2.09 3.64,1.29 9.6,1.01 10.03,-2.97 -1.02,-4.1 1.03,-7.82 5.97,-9.37 2.07,-4.01 5.99,-6.55 9.97,-9.53 6.41,-4 10.98,-10.44 15.31,-16.54 7.81,-2.48 13.58,-7.71 15.72,-15.46 4.21,-4.88 -1.11,-2.88 -3.38,-4.5 -1.57,-5.56 5.49,-9.49 5.44,-14.76 -3.03,-1.62 -7.62,0.29 -11.03,-1.37 -2.93,2.38 -5.83,-1.5 -7.31,-1.41 z m -57.63,665.94 c -0.04,-0.22 -0.07,-0.46 -0.12,-0.69 -1.66,-7.43 -1.34,2.72 0.12,0.69 z M 453.31,544.5 c -0.59,0.68 -1.07,1.06 -1.47,1.47 0.38,-0.43 0.91,-0.91 1.47,-1.47 z m 14.94,7.38 c -1.96,-0.19 -0.04,3.26 2.19,1.21 l -0.16,-0.37 c -0.91,-0.54 -1.58,-0.8 -2.03,-0.84 z M 401.69,646 c 0.22,-0.03 0.5,0.26 0.84,1.09 -1.61,5.29 -1.8,-0.95 -0.84,-1.09 z m 9.72,15.78 c 0.11,0.01 0.33,0.11 0.65,0.34 3.67,2.13 -1.52,14.98 0.25,6.19 1.96,-1.62 -1.7,-6.56 -0.9,-6.53 z m -14,22.19 c -2.72,0.28 -0.18,4.97 0.43,6.56 6.33,4.67 -3.01,-2.58 -0.43,-6.56 z m 196.03,97.15 c -4,0.44 4.49,1.61 0.44,0.04 z m 27.09,88.54 c -0.66,0.12 -0.32,1.88 0.63,0.25 -0.27,-0.21 -0.48,-0.28 -0.63,-0.25 z m -201.94,3.81 c 0.69,0.31 1.51,0.5 2.53,0.53 0.36,0.01 0.65,0.22 0.88,0.56 -0.82,-0.11 -2,0.04 -3.41,-1.09 z m 188.6,3.37 c -3.43,-0.15 -4.04,3.7 1,1.1 0.42,0.01 1.27,-0.18 0.62,-0.75 -0.59,-0.22 -1.13,-0.32 -1.62,-0.35 z m -280.13,47.47 c -2.26,3.16 1.48,4.36 0,0 z m -80.9,94.89 c -2.44,1.2 4.59,1.1 0,0 z m -2.44,0.8 c -1.34,2.1 3.48,1.9 0,0 z m 2.06,2.3 c -3.29,2.1 2.53,2.4 0,0 z"
         stroke-width="1.97085"
         style="fill:none;stroke:#000000" />
      <path
         id="path2641"
         d="m 479.66,195.26 c -0.66,3.98 -4.95,4.87 -1.54,-0.11 0.3,-0.37 2.23,-0.61 1.54,0.11 z"
         stroke-width="1.97085"
         style="fill:none;stroke:#000000" />
      <path
         id="path2643"
         d="m 440.66,211.58 c -0.33,3.71 -4.81,4.04 -2.19,-0.05 0.89,0.1 3.28,-2.46 2.19,0.05 z"
         stroke-width="1.97085"
         style="fill:none;stroke:#000000" />
      <path
         id="path2645"
         d="m 439.41,221.74 c -4.6,-2.05 -5.31,8.34 -6.1,2.42 -2.43,5.26 -3.28,-1.6 -6.59,4.17 -3.29,5.76 -1.79,-3.78 2.82,-4.55 -2.67,-4.25 7.26,-5.91 1.49,-1.64 1.14,4.45 10.61,-9.36 8.38,-0.4 z"
         stroke-width="1.97085"
         style="fill:none;stroke:#000000" />
      <path
         id="path2648"
         d="m 432.3,237.43 c 0.36,2.87 1.65,3.52 -2.85,4.03 -0.5,-6.07 -2.42,0.44 -4.3,-0.43 1.27,-3.62 5.29,-3.95 1.07,-7.16 3.58,-0.45 4.48,0.72 3.75,3.37 0.46,0.56 3.48,-1.34 2.33,0.19 z"
         stroke-width="1.97085"
         style="fill:none;stroke:#000000" />
      <path
         id="path2650"
         d="m 419.25,240.98 c -0.62,4.61 -0.26,6.11 -5.3,4.71 -1.71,-2.32 0.65,-4.4 3.34,-2.87 0.48,-0.86 0.63,-3.33 1.96,-1.84 z"
         stroke-width="1.97085"
         style="fill:none;stroke:#000000" />
      <path
         id="path2652"
         d="m 425.02,252.82 c -0.06,4.83 -5.51,2.68 -6.91,7.62 -3.08,-2.29 -7.33,-2.17 -6.34,-7.83 -5.37,1.85 -7.07,4.16 -12.2,4.2 -4.64,-2.62 2.05,-12.15 -2.44,-10.16 -1.72,0.86 0.52,3.48 -1.51,5.64 -3.55,3.73 -5.29,-7.08 -3.49,-9.66 -2.15,-7.81 8.12,-10.23 12.67,-5.39 2.57,0.43 1.23,3.86 4.96,4.88 -1.01,2.77 -4,2.23 -6.25,6.13 0.07,2.13 4.47,1.62 5.45,-0.85 2.9,3.28 4.27,-1.44 6.02,2.37 0,3.21 3.99,-1.36 5.53,0.82 -3.11,1.42 -3.45,4.82 1.13,2.42 0.15,-1.66 3.05,-1.43 3.38,-0.19 z"
         stroke-width="1.97085"
         style="fill:none;stroke:#000000" />
      <path
         id="path2654"
         d="m 416.23,263.25 c -5.68,2.13 -3.41,-2.67 -0.99,-1.64 -1.37,2.28 1.84,0.21 0.99,1.64 z"
         stroke-width="1.97085"
         style="fill:none;stroke:#000000" />
      <path
         id="path2656"
         d="m 415.07,266.11 c -3.1,1.6 0.57,12.14 -4.7,6.01 0.99,-3.64 -2.93,-4.42 0.48,-6.06 -9.69,0.36 7.01,-4.56 4.22,0.05 z"
         stroke-width="1.97085"
         style="fill:none;stroke:#000000" />
      <path
         id="path2658"
         d="m 407.34,273.17 c -2.42,3.39 -0.42,-2.1 0,0 z"
         stroke-width="1.97085"
         style="fill:none;stroke:#000000" />
      <path
         id="path2662"
         d="m 404.31,278.9 c -2.35,5.58 -2.1,-3.3 0,0 z"
         stroke-width="1.97085"
         style="fill:none;stroke:#000000" />
      <path
         id="path2664"
         d="m 401.81,260.18 c 1.63,2.6 -2.87,-0.81 0,0 z"
         stroke-width="1.97085"
         style="fill:none;stroke:#000000" />
      <path
         id="path2666"
         d="m 401.81,262.88 c 1.14,3.98 -2.88,-0.66 0,0 z"
         stroke-width="1.97085"
         style="fill:none;stroke:#000000" />
      <path
         id="path2668"
         d="m 405.64,265.24 c -3.68,4.98 -2.95,-4.77 -0.19,-1.48 -2.89,0.86 -0.4,0.51 0.19,1.48 z"
         stroke-width="1.97085"
         style="fill:none;stroke:#000000" />
      <path
         id="path2670"
         d="m 399.86,262.91 c 0.67,2.84 1.15,3.27 -2.68,5.48 1.54,-0.77 9.13,-1.43 3.34,1.27 -6.12,2.43 -8.38,-4.11 -10.11,-8.58 -6.33,-0.13 2.66,-9.45 4.65,-3.4 2.75,1.44 3.65,2.61 4.8,5.23 z"
         stroke-width="1.97085"
         style="fill:none;stroke:#000000" />
      <path
         id="path2672"
         d="m 396.27,255.48 c -1.72,2.02 -3.65,-2.49 0,0 z"
         stroke-width="1.97085"
         style="fill:none;stroke:#000000" />
      <path
         id="path2675"
         d="m 411.25,240.76 c -0.55,2.28 -3.06,-2.06 0,0 z"
         stroke-width="1.97085"
         style="fill:none;stroke:#000000" />
      <path
         id="path2677"
         d="m 411.43,232.24 c 0.22,3.05 -3.29,7 -6.45,2.65 -3.79,-2.56 1.72,-8.06 3.23,-3.34 1.19,-1.14 4.56,-1.33 3.22,0.69 z"
         stroke-width="1.97085"
         style="fill:none;stroke:#000000" />
      <path
         id="path2679"
         d="m 413.99,233.87 c -0.69,6.43 -3.75,-2.85 -0.02,-0.61 l 0.15,0.27 z"
         stroke-width="1.97085"
         style="fill:none;stroke:#000000" />
      <path
         id="path2681"
         d="m 411.87,237.21 c -3.1,3.25 -4.66,-1.69 0,0 z"
         stroke-width="1.97085"
         style="fill:none;stroke:#000000" />
      <path
         id="path2683"
         d="m 411.87,215.3 c -4.19,4.16 3.61,3.87 5.11,7.49 1.69,2.25 -3.16,5.42 -1.65,0.75 -3.99,-4.66 -4.01,-0.22 -6.18,-0.97 -1.15,-3.5 -5.71,-6.64 0.5,-5.8 -0.14,-1.65 2.28,-3.91 2.22,-1.47 z"
         stroke-width="1.97085"
         style="fill:none;stroke:#000000" />
      <path
         id="path2685"
         d="m 415.97,213.15 c 0.17,4.5 -3,5.87 -1.46,0.61 -0.16,-1.39 1.11,-3.39 1.46,-0.61 z"
         stroke-width="1.97085"
         style="fill:none;stroke:#000000" />
      <path
         id="path2687"
         d="m 418.62,227.5 c 0.61,4.27 -1.56,-0.36 0,0 z"
         stroke-width="1.97085"
         style="fill:none;stroke:#000000" />
      <path
         id="path2689"
         d="m 423.09,227.72 c -3.48,2.38 1.07,9.53 -3.15,6.66 -3.09,-3.9 -0.78,-3.03 0.09,-5.59 -0.94,-5.72 1.18,-4.43 3.06,-1.07 z"
         stroke-width="1.97085"
         style="fill:none;stroke:#000000" />
      <path
         id="path2691"
         d="m 423.27,225.07 c 1.57,3.31 -3.07,-1.68 0,0 z"
         stroke-width="1.97085"
         style="fill:none;stroke:#000000" />
      <path
         id="path2693"
         d="m 274.87,511.83 c 0.96,5.23 -4.2,10.89 -6.2,15.8 -1.42,-2.29 -10.85,3.29 -7.46,-3.26 2.68,-5.68 9.97,-10.09 13.66,-12.54 z"
         stroke-width="1.97085"
         style="fill:none;stroke:#000000" />
      <path
         id="path2695"
         d="m 280.52,504.91 c 0.65,4.81 -2.8,0.29 0,0 z"
         stroke-width="1.97085"
         style="fill:none;stroke:#000000" />
      <path
         id="path2697"
         d="m 278.06,501.26 c 2.16,2.31 -1.7,10.17 -1.03,2.76 0.54,-0.6 -0.8,-4.51 1.03,-2.76 z"
         stroke-width="1.97085"
         style="fill:none;stroke:#000000" />
      <path
         id="path2699"
         d="m 280.42,496.69 c -0.53,9.5 -6.52,-2.13 0,0 z"
         stroke-width="1.97085"
         style="fill:none;stroke:#000000" />
      <path
         id="path2701"
         d="m 284.84,488.18 c -2.65,6.61 -7.85,0.67 0,0 z"
         stroke-width="1.97085"
         style="fill:none;stroke:#000000" />
      <path
         id="path2703"
         d="m 275.6,507.69 c 1.05,6.69 -7.27,0.93 0,0 z"
         stroke-width="1.97085"
         style="fill:none;stroke:#000000" />
      <path
         id="path2705"
         d="m 275.07,505.55 c -0.03,2.96 -1.74,-0.87 0,0 z"
         stroke-width="1.97085"
         style="fill:none;stroke:#000000" />
      <path
         id="path2707"
         d="m 272.44,502.86 c -1.83,2.44 -1.54,-1.27 0,0 z"
         stroke-width="1.97085"
         style="fill:none;stroke:#000000" />
      <path
         id="path2709"
         d="m 253.13,513.92 c -1.45,4.85 -4.49,10.14 -6.53,6.51 0.78,-3.82 4.85,-6.77 6.53,-6.51 z"
         stroke-width="1.97085"
         style="fill:none;stroke:#000000" />
      <path
         id="path2711"
         d="m 249.29,522.78 c -3.9,3.81 -1.3,-3 0,0 z"
         stroke-width="1.97085"
         style="fill:none;stroke:#000000" />
      <path
         id="path2713"
         d="m 277.32,485.11 c -1.25,1.35 0.13,6.9 -3.21,4.28 -0.86,-1.62 -3.75,4.19 0.93,1.41 0.5,4.74 -12.64,9.08 -7.98,2.7 -5.58,3.84 -12.09,6.12 -19.46,6.1 -2.13,5.55 -9.51,-5.79 -2.85,-5.23 1.99,2.82 3.31,2.33 3.68,0.39 2.99,2.2 14.54,-4.72 9.05,-3.63 -3.01,2.13 -11.61,2.58 -5.81,-2.11 0.17,-4.97 9.5,-4.14 7.7,-8.23 -5.52,4.43 -7.03,-1.45 -11.99,-2.78 -6.39,1.23 -2.53,-3.72 -2.07,-4.75 -3.97,-2.05 3.32,-3.82 4.37,-1.79 -2.41,-6.41 8.56,-5.44 9.55,0.82 1.88,4.22 4.12,7.22 8.56,6.81 2.7,0.02 7.22,4.18 9.53,6.01 z"
         stroke-width="1.97085"
         style="fill:none;stroke:#000000" />
      <path
         id="path2715"
         d="m 288.07,475.94 c -0.96,3.02 -10.7,10.96 -7.08,6.11 0.6,-1.45 7.26,-8.1 7.08,-6.11 z"
         stroke-width="1.97085"
         style="fill:none;stroke:#000000" />
      <path
         id="path2717"
         d="m 242.34,498.59 c 1.09,5.07 1.4,0.32 0,0 z"
         stroke-width="1.97085"
         style="fill:none;stroke:#000000" />
      <path
         id="path2719"
         d="m 240.96,495.03 c -4.54,7.61 -3.29,-3.48 0,0 z"
         stroke-width="1.97085"
         style="fill:none;stroke:#000000" />
      <path
         id="path2721"
         d="m 252.61,483.64 c -4.94,2.13 -6.74,-5.17 -0.98,-1.29 0.37,0.35 1.74,0.56 0.98,1.29 z"
         stroke-width="1.97085"
         style="fill:none;stroke:#000000" />
      <path
         id="path2723"
         d="m 246.82,481.34 c -4.09,2.4 -0.84,-2.56 0,0 z"
         stroke-width="1.97085"
         style="fill:none;stroke:#000000" />
      <path
         id="path2725"
         d="m 236.28,484.31 c -2.07,2.6 0.18,-2.54 0,0 z"
         stroke-width="1.97085"
         style="fill:none;stroke:#000000" />
      <path
         id="path2727"
         d="m 239.12,481.24 c -0.85,3.91 -1.46,-1.77 0,0 z"
         stroke-width="1.97085"
         style="fill:none;stroke:#000000" />
      <path
         id="path2729"
         d="m 224.19,477.14 c -1.8,2.06 -4.38,0.99 -4.96,4.22 -5.14,-1.55 -3,5.99 -7.77,3.15 -2.37,-3.93 1.94,-7.18 6.39,-7.05 2.69,0.16 5.1,-3.33 6.34,-0.32 z"
         stroke-width="1.97085"
         style="fill:none;stroke:#000000" />
      <path
         id="path2731"
         d="m 237.55,464.24 c -1.24,6.38 -7.5,9.33 -11.83,9.67 -1.44,0.44 3.28,-5.45 5.98,-7.03 0.76,-1.53 6.37,-4.85 5.85,-2.64 z"
         stroke-width="1.97085"
         style="fill:none;stroke:#000000" />
      <path
         id="path2733"
         d="m 268.83,454.4 c -5.27,0.85 -0.79,-3.63 0,0 z"
         stroke-width="1.97085"
         style="fill:none;stroke:#000000" />
      <path
         id="path2735"
         d="m 249.28,450.16 c -3.65,2.75 -2.76,-3.01 0,0 z"
         stroke-width="1.97085"
         style="fill:none;stroke:#000000" />
      <path
         id="path2737"
         d="m 255.06,441.99 c 1.89,6.64 -8.45,4.19 -4,0.45 1.89,0.47 1.3,-5.98 4,-0.45 z"
         stroke-width="1.97085"
         style="fill:none;stroke:#000000" />
      <path
         id="path2739"
         d="m 248.04,435.45 c -0.04,7.32 -7.42,4.86 -9.13,0.08 -4.36,-1.08 5.58,-8.78 7.46,-4 2.78,0.75 1.25,2.77 1.67,3.92 z"
         stroke-width="1.97085"
         style="fill:none;stroke:#000000" />
      <path
         id="path2741"
         d="m 235.91,429.81 c -3.66,2.28 -8.88,0.82 -2.47,-0.78 0.68,-0.39 2.67,-0.41 2.47,0.78 z"
         stroke-width="1.97085"
         style="fill:none;stroke:#000000" />
      <path
         id="path2743"
         d="m 237.01,431.37 c -3.01,0.79 -1.7,-2.12 0,0 z"
         stroke-width="1.97085"
         style="fill:none;stroke:#000000" />
      <path
         id="path2745"
         d="m 253.17,382.78 c 1.11,5.13 -0.44,14.83 -1.39,15.84 3.46,0.27 1.09,5 3.56,7.04 3.31,0.68 1.83,4.49 2.47,4.49 4.59,-0.68 9.86,5.9 14.39,0.28 1.98,0.16 4.31,0.09 5.31,2.05 1.66,5.98 -7.17,5.8 -6.79,9.16 -1,3.53 -5.38,6.67 -7.43,9.89 -4.32,4.35 -6.01,-0.68 -3.42,-4.31 -2.06,-5.43 8.93,-7.26 7.73,-8.74 -3.77,2.43 -7.19,0.17 -8.63,-2.71 0.84,3.77 -4.78,11.5 -3.86,3.42 -1.75,-3.28 -8.98,3.1 -10.45,0.53 5.45,-2.95 -7.87,-1.57 -2.42,-5.34 -1.39,0.02 -5.65,-3.97 -6.07,-6.31 1.25,-6.93 7.27,0.85 7.45,-0.48 -2.98,-3.04 -2.76,-5.8 -6.17,-4.47 -0.68,-2.5 -1.79,-5.2 -3.34,-2.34 -0.44,-6.15 -2.43,1.34 -2.54,4.06 -4.34,-2.05 -8.33,-3.38 -9.45,-8.16 -3.93,-1.93 1.14,-3.02 1.41,-3.15 -3.27,-5.42 3.32,-4.42 3.97,0.15 4.42,3.93 3.65,0.7 1.59,-3.14 1.87,-1.85 4.14,-0.68 0.49,-4.46 -3.33,-3.77 0.86,-9.25 1.92,-2.15 1.8,3.44 7.48,4.89 6.99,5.31 -0.43,6.33 1.73,-6.25 3.24,0.39 6.69,5.01 -5.36,-5.12 0.17,-7.74 -4.43,-2.63 -1.46,-6.56 1.03,-9.68 -1.34,-3.32 6.63,1.87 6.38,5.13 2.56,0.31 3.12,3.72 3.86,5.44 z"
         stroke-width="1.97085"
         style="fill:none;stroke:#000000" />
      <path
         id="path2747"
         d="m 269.2,403.83 c 1.48,2.94 -2.75,-1.78 0,0 z"
         stroke-width="1.97085"
         style="fill:none;stroke:#000000" />
      <path
         id="path2750"
         d="m 268.56,409.94 c -1.13,2.41 -1.81,-1.31 0,0 z"
         stroke-width="1.97085"
         style="fill:none;stroke:#000000" />
      <path
         id="path2752"
         d="m 264.52,407.69 c -3.9,8.7 -8.78,-8.28 0,0 z"
         stroke-width="1.97085"
         style="fill:none;stroke:#000000" />
      <path
         id="path2754"
         d="m 262.66,382.55 c -1.26,12.99 -4.71,0.06 0,0 z"
         stroke-width="1.97085"
         style="fill:none;stroke:#000000" />
      <path
         id="path2756"
         d="m 261.33,390.47 c -3.1,4.39 -1.53,9.18 -0.91,13.23 -5.43,5.01 -4.6,-7.8 -2.24,-10.15 2.45,1.16 1.74,-5.97 3.15,-3.08 z"
         stroke-width="1.97085"
         style="fill:none;stroke:#000000" />
      <path
         id="path2758"
         d="m 242.23,352.67 c 2.47,5.29 -3.43,-1.5 0,0 z"
         stroke-width="1.97085"
         style="fill:none;stroke:#000000" />
      <path
         id="path2760"
         d="m 239.04,367.39 c 1.43,2.3 -2.9,-0.91 0,0 z"
         stroke-width="1.97085"
         style="fill:none;stroke:#000000" />
      <path
         id="path2762"
         d="m 279.41,358.39 c 2.24,4.12 -3.38,-2.16 0,0 z"
         stroke-width="1.97085"
         style="fill:none;stroke:#000000" />
      <path
         id="path2764"
         d="m 287.03,353.08 c 1.97,3.94 -2.17,-1.21 0,0 z"
         stroke-width="1.97085"
         style="fill:none;stroke:#000000" />
      <path
         id="path2766"
         d="m 299.06,348.77 c -1.5,-1.78 2.05,-0.66 0,0 z"
         stroke-width="1.97085"
         style="fill:none;stroke:#000000" />
      <path
         id="path2768"
         d="m 290.22,342.73 c -4.17,0.22 0.37,-4.23 0,0 z"
         stroke-width="1.97085"
         style="fill:none;stroke:#000000" />
      <path
         id="path2770"
         d="m 288.85,345.78 c -2.74,-0.55 1.21,-1.26 0,0 z"
         stroke-width="1.97085"
         style="fill:none;stroke:#000000" />
      <path
         id="path2772"
         d="m 285.34,347.51 c -3.47,-0.18 0.89,-2.44 0,0 z"
         stroke-width="1.97085"
         style="fill:none;stroke:#000000" />
      <path
         id="path2774"
         d="m 302.08,308.2 c -3.41,1.49 1.17,-3.18 0,0 z"
         stroke-width="1.97085"
         style="fill:none;stroke:#000000" />
      <path
         id="path2776"
         d="m 252.36,305.08 c -4.2,2.63 0.54,6.86 -0.66,7.5 -3.47,3.11 -8.08,8 -8.16,10.72 4.58,4.31 11.06,-9.25 10.21,-0.34 -2.01,4.13 -5.7,3.73 -8.98,2.55 -1.97,0.51 -4.74,-2.48 -2.72,2.13 3.5,4.92 -6.24,6.24 -7.68,7.81 5.49,-0.21 7.59,-3.76 7.98,2.9 1.52,7.09 -8.67,2.63 -8.46,4.12 6.66,1.58 1.79,8.15 -0.95,7.31 -0.82,4.81 -5.08,-5.22 -3.51,1.21 -4.84,-0.83 -5.35,-8.31 -4.28,-10.98 -4.35,3.55 0,10.67 1.25,13.25 -0.76,2.36 -10.4,-1.77 -5.08,3.28 2.67,2.63 -1.25,4 -1.98,4.29 -3.13,-0.51 -4.4,5.02 -6.93,7.64 -2.25,-1.29 -8.19,-6.91 -9.15,-10.11 3.86,0.64 2.72,5.01 5.12,0.18 1.15,-1.77 5.58,-3.21 5.39,-3.81 -4.65,-3.29 3.26,-1.96 5.19,-2.32 -1.52,-3.3 -6.8,-4.89 -10.81,-4.93 -4.02,-2.52 -4.36,-5.44 -0.28,-6.36 4.37,-1.9 -1.78,-1.37 -0.07,-2.85 -2.5,-2.15 -4.58,-6.8 -1.96,-10.24 -0.06,-2.35 7.04,-0.27 2.05,-3.43 0.1,-5.52 4.77,-0.78 5.66,-2.16 3.5,2.58 -2.49,3.3 3.32,5.07 0.78,-4.91 8.37,1.94 8.31,-1.28 -3.71,-2.96 -8.02,-10.54 -1.5,-12.05 2.31,-3.7 7.77,-2.79 10.2,-4.57 2.31,-6.52 11.66,-9.04 13.81,-13.98 3.69,2.67 3.97,5.46 4.67,9.45 z"
         stroke-width="1.97085"
         style="fill:none;stroke:#000000" />
      <path
         id="path2778"
         d="m 221.61,323.42 c -0.39,5.19 -8.61,-7.53 -2.52,-2 0.44,0.75 1.65,0.94 2.52,2 z"
         stroke-width="1.97085"
         style="fill:none;stroke:#000000" />
      <path
         id="path2780"
         d="m 218.25,324.54 c -2.29,-0.9 0.33,-1.78 0,0 z"
         stroke-width="1.97085"
         style="fill:none;stroke:#000000" />
      <path
         id="path2782"
         d="m 204.57,342.44 c -7.6,1.02 0.68,-6.44 0,0 z"
         stroke-width="1.97085"
         style="fill:none;stroke:#000000" />
      <path
         id="path2784"
         d="m 211.43,352.95 c -2.9,2.56 -6.82,1.37 -1.79,-1.47 1.35,-1.62 1.8,0.26 1.79,1.47 z"
         stroke-width="1.97085"
         style="fill:none;stroke:#000000" />
      <path
         id="path2786"
         d="m 199.67,364.1 c 0.09,4.84 -6.35,-1.41 0,0 z"
         stroke-width="1.97085"
         style="fill:none;stroke:#000000" />
      <path
         id="path2788"
         d="m 202.7,368.62 c -3.95,6.71 -5.15,-2.95 0,0 z"
         stroke-width="1.97085"
         style="fill:none;stroke:#000000" />
      <path
         id="path2790"
         d="m 196.17,370.34 c -0.24,3.72 -2.32,-1.82 0,0 z"
         stroke-width="1.97085"
         style="fill:none;stroke:#000000" />
      <path
         id="path2792"
         d="m 176.88,371.55 c -0.38,1.67 -1.52,-1.17 0,0 z"
         stroke-width="1.97085"
         style="fill:none;stroke:#000000" />
      <path
         id="path2794"
         d="m 133.61,360.29 c -2.78,4.15 -5.58,-3.86 0,0 z"
         stroke-width="1.97085"
         style="fill:none;stroke:#000000" />
      <path
         id="path2796"
         d="m 206.78,377.69 c -0.35,4.11 -8.24,-3.08 -5.2,1.39 -0.06,3.59 5.58,0.33 2.1,5.08 -4.82,0.85 -8.83,-1.85 -7.84,2.25 -0.06,6.77 -5.44,-8 -9.39,-2.94 -5.54,-2.15 -1.29,-5.74 0,-8.36 2.91,0.44 5.03,-1.32 3.09,1.89 1.96,1.21 5.25,-8.42 4.25,-1.94 2.94,6.67 3.61,-6.53 7.88,-1 -3.9,4.66 6.11,-0.2 5.11,3.63 z"
         stroke-width="1.97085"
         style="fill:none;stroke:#000000" />
      <path
         id="path2798"
         d="m 189.1,383.88 c 2.12,3.43 -2.43,-0.62 0,0 z"
         stroke-width="1.97085"
         style="fill:none;stroke:#000000" />
      <path
         id="path2800"
         d="m 178.43,387.99 c -4.62,0.11 2.41,-1.36 0,0 z"
         stroke-width="1.97085"
         style="fill:none;stroke:#000000" />
      <path
         id="path2802"
         d="m 180.64,387.23 c -0.4,3.26 -2.14,-0.57 0,0 z"
         stroke-width="1.97085"
         style="fill:none;stroke:#000000" />
      <path
         id="path2804"
         d="m 192.91,387.2 c -0.01,8.91 -5.5,-6.33 0,0 z"
         stroke-width="1.97085"
         style="fill:none;stroke:#000000" />
      <path
         id="path2806"
         d="m 199.29,395.39 c -1.04,8.7 -16.32,-3.26 -6.09,-4.77 2.22,2.01 4.97,1.9 6.09,4.77 z"
         stroke-width="1.97085"
         style="fill:none;stroke:#000000" />
      <path
         id="path2808"
         d="m 197.71,404.29 c -3.43,0.09 -11.14,-5.99 -4.51,-4.91 3.49,1.46 2.77,2.57 4.51,4.91 z"
         stroke-width="1.97085"
         style="fill:none;stroke:#000000" />
      <path
         id="path2810"
         d="m 199.98,408.37 c -2.16,2.95 -3.47,7.79 -7.37,5.7 1.4,0.06 7.93,6.28 2.94,7.29 -6.47,0.27 2.47,0.92 3.11,3.28 0.03,2.64 -8.9,1.9 -9.17,-2.3 -1.79,-7.03 -0.9,-11.33 0.64,-18.28 -1.93,-6.04 0.03,-1.79 3.06,-0.36 2.95,1.23 5.97,3.28 6.79,4.67 z"
         stroke-width="1.97085"
         style="fill:none;stroke:#000000" />
      <path
         id="path2812"
         d="m 196.64,427.69 c -1.76,7.04 -4.09,-3.27 0,0 z"
         stroke-width="1.97085"
         style="fill:none;stroke:#000000" />
      <path
         id="path2814"
         d="m 191.27,431 c -3.12,1.07 -0.39,-2.7 0,0 z"
         stroke-width="1.97085"
         style="fill:none;stroke:#000000" />
      <path
         id="path2816"
         d="m 188.78,431.37 c -0.46,3.57 2.44,4.88 -0.03,7.83 -2.97,2.09 -9.05,-0.09 -4.16,-3.44 -1.38,-1.49 3.86,-4.41 3.18,-5.14 0.33,0.28 0.81,0.34 1.01,0.75 z"
         stroke-width="1.97085"
         style="fill:none;stroke:#000000" />
      <path
         id="path2818"
         d="m 185.52,441.24 c -0.38,2.57 -5.34,1.43 -2.65,-1.16 0.33,0.72 4.06,0.54 2.65,1.16 z"
         stroke-width="1.97085"
         style="fill:none;stroke:#000000" />
      <path
         id="path2820"
         d="m 185.26,445.48 c -4.63,1.46 0.3,-3.22 0,0 z"
         stroke-width="1.97085"
         style="fill:none;stroke:#000000" />
      <path
         id="path2822"
         d="m 182.14,449.06 c -4.97,0.53 0.46,-2.19 0,0 z"
         stroke-width="1.97085"
         style="fill:none;stroke:#000000" />
      <path
         id="path2824"
         d="m 179.12,451.34 c -1.64,7.59 -4,-1.21 0,0 z"
         stroke-width="1.97085"
         style="fill:none;stroke:#000000" />
      <path
         id="path2826"
         d="m 193.3,433.84 c 1.91,2.28 -2.95,-0.66 0,0 z"
         stroke-width="1.97085"
         style="fill:none;stroke:#000000" />
      <path
         id="path2828"
         d="m 200.5,399.48 c -3.4,2.97 -0.04,-5.08 0,0 z"
         stroke-width="1.97085"
         style="fill:none;stroke:#000000" />
      <path
         id="path2830"
         d="m 199.6,391.03 c -0.24,3.23 -4.62,-3.04 0,0 z"
         stroke-width="1.97085"
         style="fill:none;stroke:#000000" />
      <path
         id="path2832"
         d="m 201.77,390.24 c -0.26,5.81 -3.2,-2.51 0,0 z"
         stroke-width="1.97085"
         style="fill:none;stroke:#000000" />
      <path
         id="path2834"
         d="m 199.85,385.72 c -0.26,7.45 -6.12,-0.54 0,0 z"
         stroke-width="1.97085"
         style="fill:none;stroke:#000000" />
      <path
         id="path2836"
         d="m 203.26,385.47 c 0.25,7 -7.19,0.99 0,0 z"
         stroke-width="1.97085"
         style="fill:none;stroke:#000000" />
      <path
         id="path2838"
         d="m 519.09,67.657 c -2.07,-2.014 -4.94,9.845 -4.04,3.654 2.38,-3.805 -0.6,-5.115 -1.8,-1.012 -1.52,2.59 -0.9,9.002 -2.36,10.074 -1.52,5.237 5.08,2.893 6.67,3.025 -2.13,-3.211 1.66,-6.82 0.93,-8.801 1.07,-2.379 2.55,-3.337 1.69,-6.322 -0.29,-0.117 -1.25,-0.047 -1.09,-0.618 z"
         stroke-width="1.97085"
         style="fill:none;stroke:#000000" />
      <path
         id="path2840"
         d="m 510.15,89.662 c 2.24,1.483 -4.23,2.969 -0.11,0.083 z"
         stroke-width="1.97085"
         style="fill:none;stroke:#000000" />
      <path
         id="path2842"
         d="m 520.68,92.873 c 0.41,-2.521 -2.68,-3.602 -5.23,-3.184 -7.1,-4.329 1.29,10.931 0.41,3.184 2.5,-0.618 3.75,4.466 4.82,0 z"
         stroke-width="1.97085"
         style="fill:none;stroke:#000000" />
      <path
         id="path2844"
         d="m 521.77,109.6 c -1.94,-2.45 -3,4.16 0,0 z"
         stroke-width="1.97085"
         style="fill:none;stroke:#000000" />
      <path
         id="path2846"
         d="m 513.43,114.35 c 1.76,-4.91 -10.2,6.16 -2.83,3.85 1.31,-1.04 1.58,-2.76 2.83,-3.85 z"
         stroke-width="1.97085"
         style="fill:none;stroke:#000000" />
      <path
         id="path2848"
         d="m 508.59,137.33 c 0.35,-3.54 -2.27,2.33 0,0 z"
         stroke-width="1.97085"
         style="fill:none;stroke:#000000" />
      <path
         id="path2850"
         d="m 506.85,138.13 c 1.98,-5.1 -5.96,-6.66 -3.34,-0.85 -0.87,3.26 3.85,5.96 3.34,0.85 z"
         stroke-width="1.97085"
         style="fill:none;stroke:#000000" />
      <path
         id="path2852"
         d="m 499.42,105.02 c -0.32,-6.531 -3.83,3.07 -4.15,-1.34 -2.14,2.91 4.94,4.4 -1.73,4.73 -2.19,6.09 -3.35,1.08 -0.38,-2 1.65,-3.96 -0.43,-2.63 -0.58,-4.06 -0.16,-4.281 0.58,-3.598 1.12,-8.278 2.04,-2.482 -0.76,-9.122 -0.68,-2.93 -0.15,1.284 -6.77,-2.209 -5.09,3.237 -5.77,2.431 0.99,6.031 1.15,6.991 -5.06,1.46 -6.61,-10.336 -7.6,-1.19 -4.32,1.13 -2.31,5.93 0.76,3.28 3.79,-1.95 1.1,5.55 4.04,0.58 0.99,-1.24 0.34,7.29 3.29,6.42 -1.76,4.99 3.28,1.11 2.73,4.44 5.86,1.66 1.71,0.5 0.55,2.38 -2.11,-0.14 -0.64,4.47 -2,5.65 -2.16,-6.58 -5.18,-0.93 -5.19,0.58 -0.59,-8.23 -4.41,2.87 -6.42,-2.71 -9.14,-0.36 -2.24,13.35 2.6,8.62 1.19,4.17 2.71,-5.81 3.31,0.53 -2.35,1.17 -2.75,4.25 1.45,6.45 1.03,-3.99 2.47,-2.1 3.41,-5.35 4.81,2.35 -5.52,-8.48 1.48,-3.81 0.92,6.75 1.28,1.26 3.97,0.17 -1.28,2.59 -3.63,10.56 -0.16,5.38 -0.36,5.54 0.95,10.19 -1.41,16.44 -2.5,4.46 -0.98,6.38 -3.16,10.74 -1.16,2.82 4.3,2.8 3.38,4.5 3.52,3.33 0.04,-6.07 2.5,-8.11 -0.33,-5.23 0.64,-3.12 2.54,-4.09 -3.41,-4.71 3.93,-4.35 -0.2,-8.53 -0.6,-4.35 1.51,-5.13 3.68,-7.4 -2.46,-2.25 0.28,-5.92 -3.44,-2.56 3.43,-5.72 -1.14,-1.58 0.56,-4.36 -2.55,-0.94 -0.03,-2.42 -0.15,-4.8 -0.33,4.77 6.62,1.19 3.34,-0.78 -3.35,0.09 6.08,-5.53 -0.88,-5.25 -5.04,-2.32 7,-0.4 3.41,-5.99 -5.84,3.52 0.45,-2.01 1.57,-5.39 -3.45,0.82 -4.17,4.51 -5.66,5.47 -0.35,-3.39 -3.63,-0.87 -3.24,-2.22 3.25,-1.45 4.12,-1.84 1.28,-5.44 z"
         stroke-width="1.97085"
         style="fill:none;stroke:#000000" />
      <path
         id="path2854"
         d="m 458.21,138.19 c -2.96,-8.99 -5.79,6.06 0,0 z"
         stroke-width="1.97085"
         style="fill:none;stroke:#000000" />
      <path
         id="path2856"
         d="m 481.23,131.44 c -4.74,-1.21 1.53,3.1 0,0 z"
         stroke-width="1.97085"
         style="fill:none;stroke:#000000" />
      <path
         id="path2858"
         d="m 474.22,117.26 c -3.12,2.9 6.59,1.77 0.32,0.11 z"
         stroke-width="1.97085"
         style="fill:none;stroke:#000000" />
      <path
         id="path2860"
         d="m 490.84,118.36 c -1.95,-3.22 -0.94,4.09 0,0 z"
         stroke-width="1.97085"
         style="fill:none;stroke:#000000" />
      <path
         id="path2862"
         d="m 490.19,114.51 c -7.52,-4.43 -1.93,7.66 0,0 z"
         stroke-width="1.97085"
         style="fill:none;stroke:#000000" />
      <path
         id="path2864"
         d="m 509.06,79.028 c -4.02,-0.463 -6.76,-1.281 -5.73,4.537 -0.96,3.583 0.7,10.99 -1.39,3.945 -3.77,0.376 -2.01,12.028 0.62,15.48 2.23,-1.88 0.46,-2.26 5.06,-1.25 -0.72,-5.062 2.34,-7.699 -2.04,-10.989 5.5,1.987 -2.68,-9.678 2.93,-2.878 2.39,-0.462 -0.18,-6.843 0.55,-8.845 z"
         stroke-width="1.97085"
         style="fill:none;stroke:#000000" />
      <path
         id="path2866"
         d="m 198.46,381.1 c -3.82,3.09 -1.68,-0.34 -2.03,-1.79 0.29,1.25 2.32,0.43 2.03,1.79 z"
         stroke-width="1.97085"
         style="fill:none;stroke:#000000" />
      <path
         id="path2868"
         d="m 352.78,315.4 c 0.72,-0.02 1.94,0.59 3.22,2.45 l -0.51,-0.05 c -3.7,-0.61 -3.9,-2.38 -2.71,-2.4 z"
         stroke-width="1.97085"
         style="fill:none;stroke:#000000" />
      <path
         id="path2870"
         d="m 344.44,321.35 c -5.84,7.24 -3.16,1.05 0,0 z"
         stroke-width="1.97085"
         style="fill:none;stroke:#000000" />
      <path
         id="path2872"
         d="m 324.72,327.69 c 5.89,3.3 11.82,7.41 15.41,13.18 -0.69,0.32 -1.1,-0.69 -1.48,-1.06 -3.36,-4.15 -14.09,-11.81 -13.93,-12.12 z"
         stroke-width="1.97085"
         style="fill:none;stroke:#000000" />
      <path
         id="path2874"
         d="m 354.21,347.81 c 0.84,-0.14 8.37,3.27 3.25,2.28 -2.88,-1.63 -3.58,-2.22 -3.25,-2.28 z"
         stroke-width="1.97085"
         style="fill:none;stroke:#000000" />
      <path
         id="path2876"
         d="m 340.64,351.82 c 0.23,0 0.88,0.62 2.05,2.25 0.48,3.7 10.05,0.61 5.22,2.7 -3.77,2.78 -8.11,-4.97 -7.27,-4.95 z"
         stroke-width="1.97085"
         style="fill:none;stroke:#000000" />
      <path
         id="path2878"
         d="m 286.79,363.4 c 0.34,-0.11 0.98,0.62 1.64,2.83 0.38,0.6 3.19,2.89 0.95,2.52 -2.92,-1.86 -3.26,-5.14 -2.59,-5.35 z"
         stroke-width="1.97085"
         style="fill:none;stroke:#000000" />
      <path
         id="path2880"
         d="m 279.99,365.79 c 0.07,-0.02 2.32,2.5 4.44,3.99 1.49,1.14 12.14,7.85 7.54,6.32 -3.37,-3.91 -9.86,-1.69 -9.98,-7.71 -1.48,-1.9 -2.04,-2.6 -2,-2.6 z"
         stroke-width="1.97085"
         style="fill:none;stroke:#000000" />
      <path
         id="path2882"
         d="m 308.08,375.44 c 0.57,0.02 1.42,0.1 2.62,0.28 0.95,0.75 5.55,-1.3 4.21,0.52 -3.14,1.5 -9.59,-0.62 -7.32,-0.78 0.14,-0.01 0.3,-0.02 0.49,-0.02 z"
         stroke-width="1.97085"
         style="fill:none;stroke:#000000" />
      <path
         id="path2884"
         d="m 379.69,375.55 c 0.68,-0.02 1.13,0.51 0.56,2.13 -4.65,0.59 -2.05,-2.09 -0.56,-2.13 z"
         stroke-width="1.97085"
         style="fill:none;stroke:#000000" />
      <path
         id="path2886"
         d="m 341.53,388.99 c 1.07,1.07 7.22,-0.18 5.32,1.48 -3.87,2.16 -14.12,-0.86 -5.32,-1.48 z"
         stroke-width="1.97085"
         style="fill:none;stroke:#000000" />
      <path
         id="path2888"
         d="m 306.88,395.32 c 1.66,-0.18 4.86,2.59 3,2.35 -2.66,-1.95 -10.77,-0.28 -3.59,-2.08 0.16,-0.16 0.35,-0.25 0.59,-0.27 z"
         stroke-width="1.97085"
         style="fill:none;stroke:#000000" />
      <path
         id="path2890"
         d="m 342.77,399.51 c 0.74,-0.02 0.31,1.01 0.37,1.37 -6.02,6.46 -10.45,16.94 -17.25,20.91 6.06,-7.26 11.15,-15.1 16.88,-22.28 z"
         stroke-width="1.97085"
         style="fill:none;stroke:#000000" />
      <path
         id="path2892"
         d="m 315.59,427.33 c 0.57,0.01 1.21,0.08 1.88,0.21 0.16,0.58 -0.54,0.53 -0.82,0.79 -6.34,1.39 -5.06,-1.09 -1.06,-1 z"
         stroke-width="1.97085"
         style="fill:none;stroke:#000000" />
      <path
         id="path2894"
         d="m 296.48,427.53 c 1.47,-0.1 2.82,0.51 4.02,1.71 -2.39,-0.81 -9.39,2.26 -8.74,0.75 1.66,-1.58 3.24,-2.37 4.72,-2.46 z"
         stroke-width="1.97085"
         style="fill:none;stroke:#000000" />
      <path
         id="path2896"
         d="m 317.87,433.76 c 0.22,0 0.24,0.29 -0.03,1.01 -1.35,3.52 -9.8,9.89 -4.27,3.35 0.44,-0.73 3.55,-4.38 4.3,-4.36 z"
         stroke-width="1.97085"
         style="fill:none;stroke:#000000" />
      <path
         id="path2898"
         d="m 271.24,438.23 c 3.13,1.67 11.48,0.01 12.11,1.25 l -0.26,0.15 -0.37,0.08 c -3.38,0.67 -15.06,1.26 -11.48,-1.48 z"
         stroke-width="1.97085"
         style="fill:none;stroke:#000000" />
      <path
         id="path2900"
         d="m 346.34,442.14 c 0.36,0.01 -0.1,0.84 -0.5,0.85 -3.78,4.37 -7.04,12.38 -8.82,15.65 0.48,-5.55 5.4,-11.68 8.93,-16.34 0.19,-0.1 0.3,-0.16 0.39,-0.16 z"
         stroke-width="1.97085"
         style="fill:none;stroke:#000000" />
      <path
         id="path2902"
         d="m 434.22,460.77 c 1.33,0.01 4.25,1.39 1,1.94 -2.03,-1.46 -1.8,-1.95 -1,-1.94 z"
         stroke-width="1.97085"
         style="fill:none;stroke:#000000" />
      <path
         id="path2904"
         d="m 325.73,460.91 c 0.78,-0.04 1.19,0.13 0.67,0.74 -4.19,1.98 -14.88,-0.05 -4.83,0.14 0.59,-0.15 2.87,-0.81 4.16,-0.88 z"
         stroke-width="1.97085"
         style="fill:none;stroke:#000000" />
      <path
         id="path2906"
         d="m 348.93,462.22 c 0.87,-0.02 1.39,0.23 1.01,1.02 -4.43,0.81 -15.79,0.94 -5.59,-0.22 0.74,-0.07 3.14,-0.79 4.58,-0.8 z"
         stroke-width="1.97085"
         style="fill:none;stroke:#000000" />
      <path
         id="path2908"
         d="m 359.72,473.11 c -0.18,0.31 -0.54,0.47 -0.77,0.75 -4.94,2.44 -7.41,9.14 -13.31,8.94 5.9,-1.28 8.88,-9.43 14.08,-9.69 z"
         stroke-width="1.97085"
         style="fill:none;stroke:#000000" />
      <path
         id="path2910"
         d="m 318.96,474.35 c 0.53,0 1.19,0.17 2.05,0.62 -3.14,4.63 -4.87,-0.59 -2.05,-0.62 z"
         stroke-width="1.97085"
         style="fill:none;stroke:#000000" />
      <path
         id="path2912"
         d="m 306.49,475.45 c 0.11,0.02 0.19,0.11 0.22,0.34 -1.37,3.51 -6.4,10.82 -8.62,9.14 3.3,-0.93 7.4,-9.64 8.4,-9.48 z"
         stroke-width="1.97085"
         style="fill:none;stroke:#000000" />
      <path
         id="path2914"
         d="m 354.48,489.68 c 1.2,-0.03 1.73,0.13 -0.53,0.65 -4,1.65 -11.08,0.02 -3.08,-0.17 0.51,-0.23 2.4,-0.45 3.61,-0.48 z"
         stroke-width="1.97085"
         style="fill:none;stroke:#000000" />
      <path
         id="path2916"
         d="m 307.18,490.04 c 0.37,-0.02 0.66,0.16 0.68,0.74 -2.66,4.12 -8.96,5.11 -10.27,10.16 -0.59,2.86 -6.87,8.78 -7.46,7.07 7.28,-3.84 6.67,-13.56 15.21,-15.77 -0.27,-0.92 1,-2.13 1.84,-2.2 z"
         stroke-width="1.97085"
         style="fill:none;stroke:#000000" />
      <path
         id="path2919"
         d="m 329.51,498.87 c 2.14,3.2 7.88,2.13 8.63,4.9 -0.26,-0.01 -0.45,-0.41 -0.73,-0.27 -2.91,0.36 -9.16,-3.23 -7.9,-4.63 z"
         stroke-width="1.97085"
         style="fill:none;stroke:#000000" />
      <path
         id="path2921"
         d="m 325.44,500.75 c 0.1,-0.06 0.29,0.12 0.57,0.65 -1.02,7.49 4.87,13.23 8.09,17.36 -2.66,0.38 -3.34,4.67 -3.97,4.46 -2.72,-4.29 -1.59,-11.54 -4.66,-16.72 0.38,-0.73 -0.5,-5.49 -0.03,-5.75 z"
         stroke-width="1.97085"
         style="fill:none;stroke:#000000" />
      <path
         id="path2923"
         d="m 312.96,548.36 c -1.44,5.23 -2,-2.85 0,0 z"
         stroke-width="1.97085"
         style="fill:none;stroke:#000000" />
      <path
         id="path2925"
         d="m 301.96,531.6 c 3.95,3.84 8.79,8.62 6.95,14.18 1.43,6.21 -1.94,-1.24 -4.84,-2.19 1.44,-4.78 -7.84,-8.46 -2.11,-11.99 z"
         stroke-width="1.97085"
         style="fill:none;stroke:#000000" />
      <path
         id="path2927"
         d="m 302.27,541.78 c 2.67,5.4 -2.66,-0.4 0,0 z"
         stroke-width="1.97085"
         style="fill:none;stroke:#000000" />
      <path
         id="path2929"
         d="m 306.98,565.57 c 2.77,4.41 -2.43,-0.27 0,0 z"
         stroke-width="1.97085"
         style="fill:none;stroke:#000000" />
      <path
         id="path2931"
         d="m 296.93,549.11 c 6.91,0.73 5.75,9.18 7.54,12.27 2.29,2.93 -1.27,4.73 1.45,6.78 1.26,3.97 -1.45,6.71 -6.26,5.92 -8.78,-1.57 -6.13,-10.04 -9.42,-16.27 0.05,-4.76 4.01,-7.89 6.69,-8.7 z"
         stroke-width="1.97085"
         style="fill:none;stroke:#000000" />
      <path
         id="path2933"
         d="m 282.17,587.46 c -3.61,2.97 -1.85,-2.21 0,0 z"
         stroke-width="1.97085"
         style="fill:none;stroke:#000000" />
      <path
         id="path2935"
         d="m 273.93,548.33 c 1.55,2.68 -2.59,10.27 -2.22,3.95 1.42,-1.37 0.57,-4.05 2.22,-3.95 z"
         stroke-width="1.97085"
         style="fill:none;stroke:#000000" />
      <path
         id="path2937"
         d="m 253.62,531.5 c -1.24,7.68 5.18,14.12 5.31,21.21 -2.41,2.66 -5.59,5.15 -9.77,4.62 -0.67,8.24 -10.45,0.94 -3.12,-2.16 2.7,-3.62 -7.2,-7.63 0.65,-9.61 -0.65,-3.82 -6.63,0.52 -6.45,4.48 -3.95,6.35 -9,1.87 -4.02,-2.9 2.34,-2.62 -0.56,-4.52 0.94,-7.87 0.11,-2.24 6.47,-4.64 6.2,-3.52 -0.99,6.02 0.64,3.69 1.81,-0.19 1.77,-1.23 8.77,-8.25 8.45,-4.06 z"
         stroke-width="1.97085"
         style="fill:none;stroke:#000000" />
      <path
         id="path2939"
         d="m 267.67,527.93 c 0.16,7.3 -5.04,6.94 -5.58,14.12 -9.92,3.36 -8.68,-17.29 2.8,-13.61 0.74,-0.06 2.57,-1.5 2.78,-0.51 z"
         stroke-width="1.97085"
         style="fill:none;stroke:#000000" />
      <path
         id="path2941"
         d="m 315,542.98 c 1.47,6.14 -5.69,2.89 -0.35,-0.59 l 0.23,0.17 z"
         stroke-width="1.97085"
         style="fill:none;stroke:#000000" />
      <path
         id="path2945"
         d="m 251.63,586.79 c -0.64,5.16 -2.15,-1.6 -5.18,-0.87 0.94,-1.14 5.31,-0.51 5.18,0.87 z"
         stroke-width="1.97085"
         style="fill:none;stroke:#000000" />
      <path
         id="path2947"
         d="m 187,606.25 c -1.62,4.53 -5.13,-5.35 0,0 z"
         stroke-width="1.97085"
         style="fill:none;stroke:#000000" />
      <path
         id="path2949"
         d="m 152.96,596.81 c -1.05,1.84 -2.05,-3 0,0 z"
         stroke-width="1.97085"
         style="fill:none;stroke:#000000" />
      <path
         id="path2951"
         d="m 151.32,590.01 c -5.53,-0.49 -1.71,-3.34 0,0 z"
         stroke-width="1.97085"
         style="fill:none;stroke:#000000" />
      <path
         id="path2953"
         d="m 143.49,604.51 c -1.51,1.72 -1.09,-2.51 0,0 z"
         stroke-width="1.97085"
         style="fill:none;stroke:#000000" />
      <path
         id="path2955"
         d="m 136.76,612.14 c 0.07,6.6 -6.18,-2.24 -1.66,-1.8 0.2,0.91 2.25,0.76 1.66,1.8 z"
         stroke-width="1.97085"
         style="fill:none;stroke:#000000" />
      <path
         id="path2957"
         d="m 140.07,607.88 c 1.59,5.5 -1.78,-0.26 0,0 z"
         stroke-width="1.97085"
         style="fill:none;stroke:#000000" />
      <path
         id="path2959"
         d="m 139.26,615.22 c 0.78,2.85 -2.29,-0.89 0,0 z"
         stroke-width="1.97085"
         style="fill:none;stroke:#000000" />
      <path
         id="path2961"
         d="m 132.88,671.49 c -0.73,2.22 -1.08,-1.74 0,0 z"
         stroke-width="1.97085"
         style="fill:none;stroke:#000000" />
      <path
         id="path2963"
         d="m 104.42,678.63 c 0.93,2.99 -5.123,-2.79 0,0 z"
         stroke-width="1.97085"
         style="fill:none;stroke:#000000" />
      <path
         id="path2965"
         d="m 55.801,678.77 c 0.426,1.79 -1.81,-0.5 0,0 z"
         stroke-width="1.97085"
         style="fill:none;stroke:#000000" />
      <path
         id="path2967"
         d="m 52.103,684.71 c 1.362,2.65 -2.29,0.58 0,0 z"
         stroke-width="1.97085"
         style="fill:none;stroke:#000000" />
      <path
         id="path2969"
         d="m 51.495,686.7 c -2.225,2.21 -1.654,-0.87 0,0 z"
         stroke-width="1.97085"
         style="fill:none;stroke:#000000" />
      <path
         id="path2971"
         d="m 53.29,690.23 c -1.044,2.66 -1.496,-1.23 0,0 z"
         stroke-width="1.97085"
         style="fill:none;stroke:#000000" />
      <path
         id="path2973"
         d="m 63.669,695.53 c 1.944,2.46 -1.582,5.1 1.657,5.62 0.02,4.7 -2.057,6.58 -5.798,2.86 -0.961,-2.67 -0.4,-6.06 -5.12,-4.36 -3.464,0.58 -8.512,-1.32 -2.678,-2.56 0.829,-3.17 5.469,1.02 7.122,-2.56 0.844,2.21 4.326,-0.92 4.817,1 z"
         stroke-width="1.97085"
         style="fill:none;stroke:#000000" />
      <path
         id="path2975"
         d="m 66.748,696.72 c -0.031,1.7 -1.985,-0.9 0,0 z"
         stroke-width="1.97085"
         style="fill:none;stroke:#000000" />
      <path
         id="path2977"
         d="m 68.514,697.7 c 0.481,2.91 -1.714,-0.81 0,0 z"
         stroke-width="1.97085"
         style="fill:none;stroke:#000000" />
      <path
         id="path2979"
         d="m 78.853,709.59 c -0.763,2.05 -1.152,-1.04 0,0 z"
         stroke-width="1.97085"
         style="fill:none;stroke:#000000" />
      <path
         id="path2981"
         d="m 79.985,710.17 c 0.585,1.62 -1.496,-0.49 0,0 z"
         stroke-width="1.97085"
         style="fill:none;stroke:#000000" />
      <path
         id="path2983"
         d="m 63.945,713.05 c -5.007,4.29 -5.541,-2.78 -0.717,-1.05 0.254,0.72 1.852,0.13 0.717,1.05 z"
         stroke-width="1.97085"
         style="fill:none;stroke:#000000" />
      <path
         id="path2985"
         d="m 60.04,720.21 c 1.311,2.74 -2.343,-1.01 0,0 z"
         stroke-width="1.97085"
         style="fill:none;stroke:#000000" />
      <path
         id="path2987"
         d="m 57.113,721.09 c -2.752,4 -2.507,-1.86 0,0 z"
         stroke-width="1.97085"
         style="fill:none;stroke:#000000" />
      <path
         id="path2989"
         d="m 55.485,728.01 c -1.026,1.09 -0.779,-1.08 0,0 z"
         stroke-width="1.97085"
         style="fill:none;stroke:#000000" />
      <path
         id="path2991"
         d="m 47.795,729.28 c 0.568,2.22 -2.532,-0.62 0,0 z"
         stroke-width="1.97085"
         style="fill:none;stroke:#000000" />
      <path
         id="path2993"
         d="m 52.586,727.08 c 0.515,4.56 -7.573,-0.3 -1.422,0.42 0.226,-0.58 0.919,-0.97 1.422,-0.42 z"
         stroke-width="1.97085"
         style="fill:none;stroke:#000000" />
      <path
         id="path2995"
         d="m 53.897,736.5 c -2.251,-0.24 0.245,-1.58 0,0 z"
         stroke-width="1.97085"
         style="fill:none;stroke:#000000" />
      <path
         id="path2997"
         d="m 66.554,745.96 c 1.073,4.97 -2.007,0.7 0,0 z"
         stroke-width="1.97085"
         style="fill:none;stroke:#000000" />
      <path
         id="path2999"
         d="m 69.315,754.53 c 1.218,4.24 -2.159,-2.32 0,0 z"
         stroke-width="1.97085"
         style="fill:none;stroke:#000000" />
      <path
         id="path3001"
         d="m 79.225,755.42 c -6.37,2.05 -0.273,-2.7 0,0 z"
         stroke-width="1.97085"
         style="fill:none;stroke:#000000" />
      <path
         id="path3003"
         d="m 75.568,759.32 c 0.129,3.36 -2.773,-0.01 0,0 z"
         stroke-width="1.97085"
         style="fill:none;stroke:#000000" />
      <path
         id="path3005"
         d="m 78.923,757.48 c 2.296,6.37 -7.084,1.45 -0.636,-0.96 0.749,-0.34 0.895,0.46 0.636,0.96 z"
         stroke-width="1.97085"
         style="fill:none;stroke:#000000" />
      <path
         id="path3007"
         d="m 80.635,770.77 c -2.102,3.23 -8.974,-3.54 -10.175,-3.51 3.821,0.08 7.139,1.81 9.305,3.06 0.336,-0.59 1.13,-0.15 0.87,0.45 z"
         stroke-width="1.97085"
         style="fill:none;stroke:#000000" />
      <path
         id="path3009"
         d="m 86.155,774.95 c -2.488,4.34 -3.019,-3.32 0,0 z"
         stroke-width="1.97085"
         style="fill:none;stroke:#000000" />
      <path
         id="path3011"
         d="m 85.685,794.91 c -1.958,1.76 -0.932,-1.62 0,0 z"
         stroke-width="1.97085"
         style="fill:none;stroke:#000000" />
      <path
         id="path3013"
         d="m 36.533,852.67 c -2.946,3.06 -4.984,1.85 -0.884,-0.62 0.404,-0.56 1.392,-0.1 0.884,0.62 z"
         stroke-width="1.97085"
         style="fill:none;stroke:#000000" />
      <path
         id="path3015"
         d="m 31.509,856.82 c 1.404,2.19 -2.523,-0.75 0,0 z"
         stroke-width="1.97085"
         style="fill:none;stroke:#000000" />
      <path
         id="path3017"
         d="m 47.038,867.05 c -3.389,3.57 -9.179,2.79 -2.845,-0.64 1.069,0.15 2.793,0.05 2.845,0.64 z"
         stroke-width="1.97085"
         style="fill:none;stroke:#000000" />
      <path
         id="path3019"
         d="m 49.563,882.22 c -0.802,2.21 -1.624,-0.97 0,0 z"
         stroke-width="1.97085"
         style="fill:none;stroke:#000000" />
      <path
         id="path3021"
         d="m 53.497,892.32 c -7.235,5.16 -1.494,-2.66 0,0 z"
         stroke-width="1.97085"
         style="fill:none;stroke:#000000" />
      <path
         id="path3023"
         d="m 72.241,889.38 c -2.05,3.75 -10.49,0.83 -3.215,0.02 0.987,1.01 3.491,-1.09 3.215,-0.02 z"
         stroke-width="1.97085"
         style="fill:none;stroke:#000000" />
      <path
         id="path3025"
         d="m 87.549,884.54 c -3.567,3.96 -2.427,-0.86 0,0 z"
         stroke-width="1.97085"
         style="fill:none;stroke:#000000" />
      <path
         id="path3027"
         d="m 83.905,900.8 c -6.673,5.91 1.226,-2.85 0,0 z"
         stroke-width="1.97085"
         style="fill:none;stroke:#000000" />
      <path
         id="path3029"
         d="m 86.998,899.46 c 0.197,1.71 -2.373,-0.03 0,0 z"
         stroke-width="1.97085"
         style="fill:none;stroke:#000000" />
      <path
         id="path3031"
         d="m 88.764,899.22 c -2.006,1.22 -0.181,-1.51 0,0 z"
         stroke-width="1.97085"
         style="fill:none;stroke:#000000" />
      <path
         id="path3033"
         d="m 90.033,900.91 c -2.272,1.72 -0.694,-1.79 0,0 z"
         stroke-width="1.97085"
         style="fill:none;stroke:#000000" />
      <path
         id="path3035"
         d="m 91.676,901.99 c -2.635,4.45 -2.147,-1.59 0,0 z"
         stroke-width="1.97085"
         style="fill:none;stroke:#000000" />
      <path
         id="path3037"
         d="m 88.488,904.85 c -5.581,4.6 -1.978,-2.6 0,0 z"
         stroke-width="1.97085"
         style="fill:none;stroke:#000000" />
      <path
         id="path3039"
         d="m 85.879,902.52 c -0.725,2.27 -0.903,-1.24 0,0 z"
         stroke-width="1.97085"
         style="fill:none;stroke:#000000" />
      <path
         id="path3041"
         d="m 83.408,772.08 c -1.902,5.58 -4.352,-1.32 0,0 z"
         stroke-width="1.97085"
         style="fill:none;stroke:#000000" />
      <path
         id="path3043"
         d="m 150.06,872.23 c -5.34,4.48 -3.32,-3.95 0,0 z"
         stroke-width="1.97085"
         style="fill:none;stroke:#000000" />
      <path
         id="path3045"
         d="m 191.28,579.19 c -2.42,0.19 1.99,2.25 2.78,2.75 -2.74,0.42 1.5,3.86 3.72,5.62 -3.61,1.19 -3.56,-0.86 -5,-2.47 -2.72,3.44 -7.52,0.76 -7.97,3.82 -4.27,4.86 3.49,8.34 1.94,13.81 3.12,6.17 -4.79,6.5 -7.5,11.47 -3.95,-0.02 8.48,-8.03 0.37,-6.03 0.59,-2.6 8.84,-6.33 2.57,-11.04 -4.42,-0.97 0.32,-11.1 -4.6,-8.56 -1.5,1.72 -9.18,3.9 -4.34,6.5 1.78,0.88 2.11,2.25 1.75,-2.34 1.76,1.78 3.26,6.01 1.38,10.5 1.34,-4.29 -4,-6.79 -6.5,-8.66 2.34,-5.02 0.72,-3.87 -2.6,-1.65 1.6,2.1 3.46,7.83 -1.4,7.4 3.8,-3.71 -0.67,-0.55 0.15,-3.5 -2.79,-0.16 -1.69,-4.11 -5.03,-4.06 -0.61,4.58 -4.64,5.47 -7.56,8.25 0.64,-2.39 1.1,-3.79 -2.44,-1.59 -5.44,-3.47 -5.3,4.42 -5.97,5.4 2.43,3.28 -4.52,2.02 -3.87,6.19 -4.78,0 0.72,4.73 0.84,5.59 -6.58,-0.4 -1.04,7.14 1.59,3.91 4.71,1.93 -1.12,0.9 -1.62,3.5 6.42,2.28 -1.54,1.2 -4.38,1.03 -6.29,0.98 -1.69,2.94 1.66,5.66 5.56,3.68 -9.23,-2.67 -2.87,0.5 6.09,4.32 -6.86,-2.64 -9.26,1.31 -2.08,2.95 -6.81,4.3 -5.18,7 1.84,4.24 9.55,6.93 14.94,4.09 -1.44,4.11 7.97,-2.5 3.71,2.6 -5.36,4.68 1.41,1.06 3.35,-1.78 4.56,-5.7 0.92,4.41 5.62,-0.03 3.52,-4.01 8.52,0.33 4.35,0.81 -1.3,0.81 -5.66,7.11 -6.72,11.06 -3.69,2.05 -9.76,0.28 -9.66,2.94 -1.69,4.18 -5.45,4.79 -9.19,6.56 -2.46,6.19 4.55,0.51 7.88,3.78 -1.07,1.2 -5.85,-0.78 -1.06,1.97 7.62,3.36 -9.02,0.56 -3.13,3.91 5.18,3.67 1.43,5.29 -2,1.71 -2.24,-6.15 -8.51,-1.17 -12.91,-2.93 -3.99,-4.29 -10.24,-2.14 -10.59,3.62 -1,3.97 -1.91,4.76 -5.06,1.44 -1.606,-1.34 0.92,-5.66 -1.44,-5.81 -0.886,-0.08 -4.717,-6.58 -7.249,-2.13 -6.396,-2.33 -13.857,0.05 -21.156,-3.47 -5.53,1.18 -2.027,4.75 0.063,4.63 2.934,4.07 -0.258,0.27 -3.094,1.31 -0.548,3.23 -2.648,7.29 -5.688,3.72 1.249,0.48 6.588,-2.56 0.969,-3.22 -2.14,-4.64 -3.191,-2.19 -6.25,0.34 -0.326,0.84 0.022,2.38 -1.375,2.1 3.913,1.49 -0.245,5.49 -0.938,9.84 1.085,4.88 3.678,0.75 2.594,-0.47 0.106,-2.31 0.198,-4.95 3.125,-4.97 -2.74,-5.6 5.28,-0.75 2.813,0.82 0.327,0.45 -0.184,2.62 1.5,3.94 0.763,0.92 -5.753,3.15 -0.813,5.37 2.283,-0.85 5.218,-6.57 4.344,-3.34 0.269,2.76 -4.619,5.31 -0.875,8.25 2.239,2.38 1.485,4.15 3.781,4.28 0.896,5.5 -0.189,1.39 -2.969,0 -3.603,-1.97 -6.25,9.9 -0.843,7.34 4.53,-2.46 11.72,-3.65 15.031,-1.75 0.596,2.47 -1.611,3.39 -2.094,5.22 4.45,1.79 1.748,4.97 -3.687,3.72 -5.61,0.13 -13.678,0.79 -11.25,8.47 3.431,5.72 -0.682,7.26 -6.438,6.15 1.499,2.84 1.664,3.89 -2.906,2.94 1.296,1.58 -8.754,1.64 -2.594,2.22 0.513,2.91 4.901,5.52 4.188,7.94 -2.642,-1.56 -8.026,3.21 -3.219,2.9 3.18,-1.93 4.797,2.05 8.125,3.19 2.171,-0.79 5.917,-7.58 4.687,-2 3.353,-2.18 2.727,-1.47 4.126,-0.19 0.118,2.7 -6.461,2.1 -5.5,5.97 1.707,0.39 4.936,2.28 7.656,1.91 1.008,-2.4 7.469,-9.98 5.125,-3.09 -0.716,3.71 4.201,-4.86 3.437,1.21 -2.136,0.28 -2.969,6.99 -1.031,7.44 2.046,-2.32 2.053,-5.07 2.375,-0.09 8.635,1.47 18.92,-0.42 27.41,-2.56 7.81,-0.6 -3.45,3.68 1.81,4.96 5.86,-1.9 -0.51,1.56 1.66,5.1 -0.49,1.03 -3.64,-3.99 -7.1,-1.25 6.4,1.05 2.05,1.49 -1.87,0.59 1.85,1.61 -3.15,3.76 -6.598,0.38 -3.001,0.99 -4.285,6.36 -6.562,9.25 0.073,2.91 -7.438,9 -2.812,8.43 8.142,-1.18 -0.845,4.22 -0.657,7.25 -2.11,2.68 -1.636,10.24 -6.875,8.19 -4.54,5.31 -9.986,11.84 -17.468,14.97 3.246,0.69 11.028,-0.11 11.937,-3.53 4.303,-0.25 6.646,-2.24 6.875,-5 1.29,5.65 9.48,5.11 14.062,2.59 -2.943,1.76 -2.994,5.84 0.75,2.19 5.478,-0.29 10.118,-5.58 11.098,-10.53 2.79,-5.8 6.63,1.53 3.84,4.47 2.94,-1.96 14.58,0.51 7.75,2.15 -4.71,-3.82 -9.21,3.77 -12.44,2.88 -4.4,0.03 -12.134,5.86 -17.154,3.53 -3.818,2.29 -9.58,-1.2 -13.125,1.69 -3.899,2.87 4.096,7.8 -0.969,6.03 -3.8,2.42 -8.155,4.76 -12.843,5.16 0.391,2.99 7.813,1.76 5.187,7.59 -4.828,4.06 -0.678,4.02 4.032,4.37 1.067,4.67 -4.433,-0.73 -5.438,2.78 -6.743,2.84 -7.159,-5.16 -9,-6 1.383,1.94 -1.509,6.51 -5.562,6.04 1.59,-5.02 -4.396,-5.03 -7.376,-0.72 -4.898,-0.16 -1.549,6.22 -5.031,5.4 -1.866,-4.71 -5.371,4.74 -1.937,6.57 5.118,-0.7 3.001,-3.27 8.094,-1.19 -1.518,-2.05 0.131,-1.87 2.593,-1 2.534,3.04 10.954,-4.55 13.5,0.66 -0.845,-2.13 3.072,-4.85 6.031,-1.82 6.854,-0.96 -1.827,3.77 -3.124,0.6 -0.88,2.1 -2.128,8.45 -3.126,3.37 -0.73,4.5 -8.047,3.84 -11.843,6.47 -1.716,0.83 -5.468,3.22 -4.438,4.5 6.796,5.13 -6.529,3.44 -4.75,7.53 1.95,0.8 2.586,2.81 2.344,5.69 3.038,-2.04 8.116,-10.01 7.813,-0.91 -5.252,2.39 3.519,1.28 2.406,4.57 3.775,-2.17 9.857,-5.95 12.968,-5.69 2.249,-0.1 8.036,-5 14,-5.22 -0.907,2.68 -8.801,2.46 -10.437,6.84 1.315,2.87 -2.423,0.57 -3.906,3.44 -0.597,-0.91 -3.094,-0.52 -5.625,1.87 3.314,1.35 -0.708,4.97 -4.656,4.07 -0.153,1.2 2.702,4.65 -2.469,4.47 -2.826,3.31 0.788,0.97 3.875,1.28 5.492,-0.04 7.591,-5.69 14.156,-4.91 5.008,-0.95 11.665,-3 11.344,-7.5 0.383,5.02 5.957,0.76 4.468,4.5 -3.572,4.26 -11.853,5.12 -16.25,9.28 -3.915,3.27 -2.292,3.89 1.782,1.31 1.986,-0.61 11.668,-5.88 8.312,-3.09 -2.571,5.56 -12.903,6.72 -11.937,11.59 1.184,0.69 4.962,0.6 5.562,-1.84 2.519,-5.5 3.777,1.17 6.25,-2 1.538,-1.75 6.982,-0.85 6.907,-4.19 3.532,1.76 -0.098,5.25 3.5,7.07 4.07,-2.06 4.62,-2.75 7.442,-1.22 0.74,-4.09 4.07,-1.59 5.34,-5.25 -2.47,-3.26 4.4,0.76 5.94,-1.57 2.59,4.17 3.84,2.47 6.46,-0.59 2.83,-2.95 5.28,1.25 8.5,0.35 -1.59,-4.59 4.83,-7.92 7.19,-3.22 0.08,-0.2 1.48,-6.15 0.97,-7.22 2.76,3.5 4.37,-0.31 8.31,-1 3.12,-2.2 5.04,-6.73 2.1,-10.1 0.67,-3.83 -5.9,0.41 -3.75,-3.25 2.77,2.79 11.71,-1.78 10.34,1.94 -8.39,5.19 -0.17,6.52 3.38,4 6.26,1.06 3.23,-4.07 8.25,-4.91 6.25,0.89 0.07,-3.15 2.9,-3.09 0.35,-7.3 7.73,0.67 8.72,-4.91 4.94,-0.29 6.46,-3.11 8.69,-6.28 -3.01,0.45 -4.87,-5.42 -0.69,-2.37 4.66,-5.82 13.86,-3.08 19.53,-5.16 3.13,-0.43 1.44,-2.19 4.13,-1.69 -3.22,3.5 3.45,3.78 5,0.5 1.17,-2.04 0.21,-5.56 -0.88,-9.5 1,1.15 5.35,6.13 4.5,9.72 -4.52,5.34 2.41,-0.67 3.97,-1.93 0.22,-3.58 -0.85,-3.34 3.1,-6.29 -1.28,3.72 -2.43,4.79 2.65,3.6 4.62,1.93 8.19,4.6 12.13,0.56 -1.52,3 4.5,-0.95 3.53,1.5 1.81,2.98 6.26,-6 1,-6.75 -0.59,-1.11 -0.4,-2.22 0,-3.31 -0.81,1.24 -4.03,1.09 -3.13,-2.81 3.09,-1.45 4.46,1.62 3.97,-4 3.69,-6.47 10.49,-12.39 6.91,-20.41 3.16,-5.07 3.35,-10.36 5.68,-15.62 1.82,-2.83 7.48,-9.3 3.57,-11.66 -0.4,-6.41 0.55,-13.29 -3.19,-18.84 1.63,-6.17 -3.46,-6.38 -5.97,-11.07 1.32,-5.01 6.88,-0.77 8.44,-2.84 -0.14,-0.73 -1.08,-0.72 -1.66,-0.85 -5.38,-2.09 -0.41,-8.72 0.28,-13.09 -2.6,-4.52 -8.94,-7.22 -8.65,-14.25 1.6,-5.15 -0.36,-6.46 0.25,-11.09 -4.35,-0.57 -8.71,-5.27 -6.13,-10.75 0.7,-6.9 7.88,3.02 12.19,-1.19 1.14,-3.02 -7.55,-5.94 -6.19,-7.66 0.17,-0.21 0.49,-0.42 1,-0.59 1.38,2.51 9.23,1.92 5.82,4.56 4.49,1.65 11.03,-3.99 11.74,-8.9 -0.35,-4.83 0.78,-9.29 6.82,-8.69 5.01,2.96 7.04,-0.56 9.81,-5.13 1.04,-5.92 -3.31,-7.47 -7.69,-3.43 -0.25,-0.84 5.98,-7.89 2.38,-10.13 -0.51,-3.17 -1.47,-3.92 -2.82,-6.22 0.05,-6.06 7.69,1.5 7.82,4.56 0.08,4.79 -2.53,8.56 1.12,12.82 2.31,0.09 3.11,-4.36 2.91,-6.97 3.14,-4.17 -0.25,-6.4 -0.56,-10.72 -2.03,-3.7 -2.16,-13.14 -8.19,-10.91 -5.19,-0.97 -10.24,1.8 -13.06,6.04 -3.2,-7.11 6.84,-9.11 10.5,-12.79 3.84,-4.23 -6.54,-12.8 -3.72,-6.18 3.46,4.11 2.64,2.78 -1.25,1.15 -1.25,-4.64 -3.66,-10 -7.47,-13.72 -4.74,0.25 2.12,-10.16 -5.19,-6.9 1.6,-5.97 0.08,-18.1 -9.06,-13.32 -2.79,-1.56 -7.15,-3.05 -10.85,-3 -1.67,0.03 -3.21,0.37 -4.4,1.19 -5.6,1.94 -10.24,5.53 -16.78,5.16 -5.82,-4.55 -3.91,1.67 -6.32,5.69 -0.72,6.9 -6.73,4.5 -11.5,4.5 -0.17,-0.25 -0.31,-0.52 -0.4,-0.78 -1.36,-3.94 6.8,-9.66 11.12,-11.82 7.85,-1.75 1.32,-6.59 -2.37,-6.15 -5.49,-2.97 -8.03,-9.45 -15.59,-9.22 -0.23,-0.01 -0.44,-0.02 -0.6,0 z m 45.63,48.72 c 1.55,6.66 -3.54,1.72 0,0 z m -0.88,5.93 c 0.62,-0.02 1.14,0.67 1.13,2.47 3.65,3.27 8.59,-3.61 11.37,0.47 -2.04,3.65 -6.26,8.12 -1.59,10.13 -4.63,2.37 -3.43,6.27 -5.47,8.47 -3.12,-0.22 -5.09,-3.87 -9.19,-1.29 -6.62,-4.77 6.3,-8.07 1.88,-14.28 -1.48,-2.47 0.5,-5.92 1.87,-5.97 z m -66.25,17.78 c 1.47,-0.06 2.91,0.26 4,1.13 -0.02,2.38 0.26,4.82 1.94,7.53 3.4,-0.04 2.93,10.04 0.87,2.63 -3.2,-3.67 -9.98,-7.01 -13.62,-6.53 0.19,-2.54 3.59,-4.61 6.81,-4.76 z m 13.31,22 c 1.66,-0.02 1.49,2.72 3.5,3.72 0.46,3.92 4.52,7.62 0,5.75 1.34,-2.12 -5.41,-6.74 -5.4,-8.68 0.83,-0.54 1.44,-0.78 1.9,-0.79 z m -43.71,0.94 c -0.66,1.08 5.44,-1.14 5.46,0.94 -1.85,2.19 -8,1.45 -5.46,-0.94 z M 71.719,679 c 0.748,0 1.619,0.29 2.187,0.62 0.734,5.17 -3.315,1.55 -2.844,-0.5 0.211,-0.06 0.407,-0.12 0.657,-0.12 z m 85.471,4.12 c 0.61,0 1.53,0.12 2.9,0.41 0.62,3.11 -2.33,12.26 -2.84,4.75 0.56,-2.69 -2.73,-5.15 -0.06,-5.16 z m -59.94,5.29 c 1.03,-0.05 2.6,0.84 3.5,2.65 -3.773,3.45 5.08,5.32 -0.41,6.88 -3.763,-0.01 -4.688,-6.74 -2.652,-5.63 -2.074,-2.56 -1.606,-3.85 -0.438,-3.9 z m 51.34,5.9 c 0.53,0.01 1.23,0.51 2.13,1.81 l -0.25,0.13 -0.06,0.37 c -3.17,3.72 -3.7,-2.33 -1.82,-2.31 z m -45.93,3.28 c 0.48,-0.08 1.01,0.56 1.34,2.63 -3.5,2.46 -2.57,-2.42 -1.34,-2.63 z m 36.34,1.13 c 0.38,-0.02 0.9,0.12 1.62,0.53 0.61,-0.33 0.8,0.4 0.29,0.66 -1.46,2.76 -1.33,5.41 -4.16,2.4 1.59,-0.16 0.61,-3.52 2.25,-3.59 z m 56.91,12.4 c 0.43,0.1 1.68,0.29 1.34,1.04 -1.58,4.6 -7.76,1.93 -1.34,-1.04 z m -98.129,6.35 c 0.521,0.02 1.631,3.24 2.063,3.28 0.156,-0.68 1.336,-1.06 1.156,0 -1.634,5.56 -2.66,2.6 -3.438,-0.75 -0.126,-1.9 -0.019,-2.54 0.219,-2.53 z m -1.687,5.62 c 0.183,0 0.36,0.03 0.562,0.1 0.753,3.71 0.145,7.31 -1.156,9.69 -3.007,2.9 -7.544,-3.17 -6.688,-2.5 3.756,-0.03 4.53,-7.26 7.282,-7.29 z m 95.936,0.97 c 0.33,-0.01 0.72,0.11 1.13,0.38 2.82,3.3 3.97,6.05 -0.35,2.06 -2.97,1.17 -2.54,-2.35 -0.78,-2.44 z m -32.19,0.32 c 0.29,0.01 0.65,0.13 1.1,0.43 -1.2,3.19 1.41,8.49 3.06,9.53 2.14,-1.3 4.88,-1.6 4.12,0.38 -5.12,1.83 -1.32,6.61 -3.09,6.9 -3.78,1.29 -3.07,-2.07 -3.75,-2.74 0.78,-4.67 -1.01,-4.91 -3,-7.41 0.93,-1.02 -0.45,-7.19 1.56,-7.09 z m 31.54,6.34 c 5.76,6.99 -5.01,0.24 0,0 z m -93.786,5.31 c 2.436,-0.03 3.596,1.18 3.626,4.38 -1.647,4.25 7.5,4.1 8.09,5.31 -5.18,2.32 4,8.71 -3.4,8.66 -3.44,-3.81 1.91,-8.9 -4.6,-9.1 -4.233,-0.02 -6.902,-5.8 -13.122,-5.84 1.29,-3.1 5.761,1.25 3.593,-2.16 2.417,-0.75 4.348,-1.23 5.813,-1.25 z m 94.156,3.35 c 0.16,-0.02 0.29,-0.01 0.47,0 0.18,0 0.36,0 0.56,0.03 -2.01,7.87 -5.87,0.32 -1.03,-0.03 z m -40.19,33.59 c 0.08,-0.01 0.15,0 0.22,0 0.53,0.01 0.94,0.28 1.1,1.12 -6.01,1.51 -6.12,7.33 -4.91,11.19 -2.72,1.26 -0.53,3.55 -5.56,2.25 -0.64,2.42 -4.7,9.93 -3.97,3.56 4.47,-3.97 -6.1,-2.89 0.68,-5.43 4.85,0.87 7.19,-2.49 4.32,-6.5 4.05,-0.12 2.04,-3.56 4.25,-5.75 1.26,0.55 2.8,-0.34 3.87,-0.44 z m 90.32,61.78 c -0.06,0.13 -0.14,0.29 -0.19,0.44 0.08,-0.14 0.17,-0.28 0.19,-0.44 z M 83,855.59 c 0.046,-0.01 0.072,0 0.125,0 0.47,0.03 1.248,0.5 2.344,1.69 0.429,0.47 2.011,0.44 1.5,1.34 -3.408,2.26 -5.375,-2.81 -3.969,-3.03 z"
         stroke-width="1.97085"
         style="fill:none;stroke:#000000" />
      <path
         id="path3047"
         d="m 342.29,661.83 c -2.51,4.18 -0.04,8.21 1.83,10.27 -3.33,4.48 -2.86,8.73 -7.78,11.61 -0.75,2.78 -6.91,5.51 -7.3,7.38 -2.56,-0.68 -4.86,-1.56 -8.18,0.47 1.97,-3.88 2.19,-10.27 4.73,-13.94 7.25,-3.86 5.77,-15.34 15.47,-16.12 0.47,-0.55 1.05,-0.31 1.23,0.33 z"
         stroke-width="1.97085"
         style="fill:none;stroke:#000000" />
      <path
         id="path3049"
         d="m 319.98,691.49 c -0.86,3.75 -2.03,-0.01 0,0 z"
         stroke-width="1.97085"
         style="fill:none;stroke:#000000" />
      <path
         id="path3051"
         d="m 295.52,881.27 c 2.41,1.75 -2.88,0.93 0,0 z"
         stroke-width="1.97085"
         style="fill:none;stroke:#000000" />
      <path
         id="path3053"
         d="m 294.2,870.74 c -0.21,3.24 -1.8,-1.18 0,0 z"
         stroke-width="1.97085"
         style="fill:none;stroke:#000000" />
      <path
         id="path3055"
         d="m 326.7,752.97 c 2.35,-1.4 6.74,5.53 3.87,6.6 -0.6,-4.09 -8.07,-3.04 -3.87,-6.6 z"
         stroke-width="1.97085"
         style="fill:none;stroke:#000000" />
      <path
         id="path3057"
         d="m 339.29,744.38 c 7.76,-0.76 7.8,7.48 11.42,10.93 4.9,-3.86 9.83,0.26 3.26,3.76 -4.79,2.24 -7.31,8.03 -10.81,10.01 -4.05,0.31 -5.16,-2.9 -7.94,-5.5 -3.27,-4.9 -4.59,-11.79 -2.91,-17.02 2.7,-0.64 4.19,-1.69 6.98,-2.18 z"
         stroke-width="1.97085"
         style="fill:none;stroke:#000000" />
      <path
         id="path3059"
         d="m 505.23,964.8 c -5.72,1.07 -4.35,10.1 -11.81,7.33 -2.63,-4 -11.2,-6.81 -12.08,-6.64 2.15,-4.71 7.29,-2.98 8.68,-5.06 3.86,-5.92 8.8,0.75 13.71,0.45 0.14,1.34 3.02,2.71 1.5,3.92 z"
         stroke-width="1.97085"
         style="fill:none;stroke:#000000" />
      <g
         id="g3071"
         transform="matrix(0.49692,0,0,0.49342,-8385.9,-5007)"
         stroke-width="5.91256"
         style="fill:none;stroke:#000000">
        <g
           id="g3093"
           transform="translate(2.8346,-8.5039)"
           stroke="#727271"
           stroke-width="5.91256"
           fill="#ff1d1d"
           style="fill:none;stroke:#000000" />
      </g>
      <g
         id="g3097"
         transform="matrix(0.49692,0,0,0.49342,-8385.9,-5007)"
         stroke-width="5.91256"
         style="fill:none;stroke:#000000" />
    </g>
  </g>
  <circle
     style="fill:#000000;stroke:#000000;stroke-width:2.13543;stroke-opacity:1;stop-color:#000000"
     id="path7054-6"
     cx="625.16687"
     cy="910.41235"
     r="5" />
  <text
     xml:space="preserve"
     style="font-size:21.3333px;line-height:0.6;font-family:'Victor Mono';-inkscape-font-specification:'Victor Mono';letter-spacing:0px;word-spacing:0px"
     x="530.01428"
     y="926.33881"
     id="text24278"><tspan
       sodipodi:role="line"
       id="tspan24276"
       x="530.01428"
       y="926.33881"
       style="font-size:21.3333px">Wissant</tspan></text>
  <circle
     style="fill:#000000;stroke:#000000;stroke-width:2.13543;stroke-opacity:1;stop-color:#000000"
     id="path7054"
     cx="365.52582"
     cy="321.29697"
     r="5" />
  <circle
     style="fill:#000000;stroke:#000000;stroke-width:2.13543;stroke-opacity:1;stop-color:#000000"
     id="path7054-3"
     cx="307.85107"
     cy="513.70831"
     r="5" />
  <circle
     style="fill:#000000;stroke:#000000;stroke-width:2.13543;stroke-opacity:1;stop-color:#000000"
     id="path7054-6-3"
     cx="319.20197"
     cy="483.5162"
     r="5" />
  <text
     xml:space="preserve"
     style="font-size:21.3333px;line-height:0.6;font-family:'Victor Mono';-inkscape-font-specification:'Victor Mono';letter-spacing:0px;word-spacing:0px"
     x="294.62537"
     y="544.42145"
     id="text21158"><tspan
       sodipodi:role="line"
       id="tspan21156"
       x="294.62537"
       y="544.42145"
       style="font-size:21.3333px">Àrd-Dhìthreabh</tspan></text>
  <text
     xml:space="preserve"
     style="font-size:21.3333px;line-height:0.6;font-family:'Victor Mono';-inkscape-font-specification:'Victor Mono';letter-spacing:0px;word-spacing:0px"
     x="330.20602"
     y="494.68619"
     id="text24278-6"><tspan
       sodipodi:role="line"
       id="tspan24276-7"
       x="330.20602"
       y="494.68619"
       style="font-size:21.3333px">Glasgow</tspan></text>
  <text
     xml:space="preserve"
     style="font-size:21.3333px;line-height:0.6;font-family:'Victor Mono';-inkscape-font-specification:'Victor Mono';letter-spacing:0px;word-spacing:0px"
     x="370.31677"
     y="345.43823"
     id="text26398"><tspan
       sodipodi:role="line"
       id="tspan26396"
       x="370.31677"
       y="345.43823"
       style="font-size:21.3333px">Inbhir Èireann</tspan></text>
</svg>
